<?xml version="1.0" encoding="utf-8"?>
<!-- Generator: Adobe Illustrator 26.4.1, SVG Export Plug-In . SVG Version: 6.00 Build 0)  -->
<svg version="1.1" id="Layer_1" xmlns="http://www.w3.org/2000/svg" xmlns:xlink="http://www.w3.org/1999/xlink" x="0px" y="0px"
	 viewBox="0 0 16 16" style="enable-background:new 0 0 16 16;" xml:space="preserve">
<style type="text/css">
	.st0{fill:#6EADB8;}
	.st1{fill:#FFFFFF;}
</style>
<circle class="st0" cx="8" cy="8" r="8"/>
<path class="st1" d="M13.2,8c0,2.9-2.3,5.2-5.2,5.2S2.8,10.9,2.8,8S5.1,2.8,8,2.8S13.2,5.1,13.2,8z M8,5.1c0-0.2-0.1-0.3-0.3-0.3
	S7.3,4.9,7.3,5.1v3.6c0,0.1,0.1,0.2,0.2,0.3l2.3,1.3c0.2,0.1,0.4,0,0.4-0.1c0.1-0.2,0-0.3-0.1-0.4L8,8.5V5.1z"/>
</svg>
