<?xml version="1.0" encoding="UTF-8"?><svg id="Layer_2" xmlns="http://www.w3.org/2000/svg" viewBox="0 0 494.62 494.62"><defs><style>.cls-1{fill:#fff;}.cls-2{fill:#78a669;}</style></defs><g id="Layer_1-2"><circle class="cls-2" cx="247.31" cy="247.31" r="247.31"/><circle class="cls-1" cx="248.17" cy="248.79" r="148.32"/><circle class="cls-2" cx="248.17" cy="248.79" r="117.59"/><polygon class="cls-1" points="261.06 248.79 324.94 186.85 250.8 236.78 261.06 248.79"/><polygon class="cls-1" points="234.52 251.4 194.98 218.2 243.39 237.96 234.52 251.4"/><rect class="cls-1" x="281.25" y="244.56" width="2.12" height="81.36" transform="translate(-119 287.62) rotate(-45.64)"/><rect class="cls-1" x="246.64" y="131.2" width="4.78" height="12.03"/><rect class="cls-1" x="302.64" y="145.58" width="2.17" height="8.23" transform="translate(115.78 -131.97) rotate(30.05)"/><rect class="cls-1" x="344.78" y="186.73" width="2.17" height="8.23" transform="translate(338.89 -204.12) rotate(60.1)"/><rect class="cls-1" x="345.94" y="300.43" width="2.17" height="8.23" transform="translate(784.79 157.79) rotate(120.2)"/><rect class="cls-1" x="304.75" y="342.47" width="2.17" height="8.23" transform="translate(743.35 495.69) rotate(150.25)"/><rect class="cls-1" x="191.02" y="343.47" width="2.17" height="8.23" transform="translate(182.3 744.61) rotate(-149.66)"/><rect class="cls-1" x="149.12" y="302.1" width="2.17" height="8.23" transform="translate(-41.83 588.08) rotate(-119.6)"/><rect class="cls-1" x="148.47" y="188.38" width="2.17" height="8.23" transform="translate(-92.2 223.68) rotate(-59.51)"/><rect class="cls-1" x="189.95" y="146.62" width="2.17" height="8.23" transform="translate(-49.43 113.44) rotate(-29.46)"/><rect class="cls-1" x="246.64" y="354.34" width="4.78" height="12.03"/><rect class="cls-1" x="357.35" y="242.77" width="4.78" height="12.03" transform="translate(608.53 -110.95) rotate(90)"/><rect class="cls-1" x="134.21" y="242.77" width="4.78" height="12.03" transform="translate(385.38 112.19) rotate(90)"/><circle class="cls-1" cx="248.17" cy="248.79" r="13.54" transform="translate(-50.98 433.16) rotate(-76.72)"/><circle class="cls-1" cx="248.17" cy="248.79" r="9.11"/></g></svg>