<?xml version="1.0" encoding="UTF-8"?>
<svg id="Layer_1" data-name="Layer 1" xmlns="http://www.w3.org/2000/svg" viewBox="0 0 80 80">
  <defs>
    <style>
      .cls-1, .cls-2 {
        fill: #6eadb8;
      }

      .cls-2 {
        opacity: .3;
      }

      .cls-3 {
        fill: #e6e7e8;
      }
    </style>
  </defs>
  <circle class="cls-3" cx="40" cy="40" r="38.26"/>
  <circle class="cls-2" cx="40" cy="40" r="33.39"/>
  <g>
    <path class="cls-1" d="m47.87,16.07c-7.83,0-14.18,6.34-14.18,14.18,0,1.4.21,2.79.61,4.12l-16.37,16.37v9.46h9.46l16.37-16.37c7.5,2.28,15.42-1.96,17.69-9.45,2.28-7.5-1.96-15.42-9.45-17.69-1.34-.41-2.73-.61-4.12-.61Zm0,25.21c-1.09,0-2.16-.16-3.2-.48l-1.81-.55-1.34,1.34-5.01,5.01-2.17-2.17-2.23,2.23,2.17,2.17-2.5,2.5-2.17-2.17-2.23,2.23,2.17,2.17-3.48,3.48h-5v-5l15.45-15.45,1.34-1.34-.55-1.81c-1.77-5.83,1.52-11.99,7.35-13.76s11.99,1.52,13.76,7.35c1.77,5.83-1.52,11.99-7.35,13.76-1.04.32-2.12.48-3.2.47Z"/>
    <circle class="cls-1" cx="49.45" cy="28.67" r="3.15"/>
  </g>
</svg>