<?xml version="1.0" encoding="UTF-8"?>
<svg id="Layer_1" data-name="Layer 1" xmlns="http://www.w3.org/2000/svg" viewBox="0 0 80 80">
  <defs>
    <style>
      .cls-1, .cls-2 {
        fill: #6eadb8;
      }

      .cls-2 {
        opacity: .3;
      }

      .cls-3 {
        fill: #e6e7e8;
      }
    </style>
  </defs>
  <circle class="cls-3" cx="40" cy="40" r="38.26"/>
  <circle class="cls-2" cx="40" cy="40" r="33.39"/>
  <g>
    <path class="cls-1" d="m39.87,44.61c-1.3,0-2.59-.42-3.67-1.26l-18.4-15.57c-.84-.71-.94-1.97-.23-2.8.71-.84,1.97-.94,2.8-.23l18.33,15.51c.67.52,1.7.52,2.45-.06l18.49-15.47c.84-.7,2.1-.6,2.8.25.7.84.59,2.1-.25,2.8l-18.55,15.51c-1.12.87-2.45,1.3-3.77,1.3Z"/>
    <path class="cls-1" d="m57.86,60.12H22.14c-3.33,0-6.04-2.71-6.04-6.04v-25.76c0-3.33,2.71-6.04,6.04-6.04h35.72c3.33,0,6.04,2.71,6.04,6.04v25.77c0,3.33-2.71,6.03-6.04,6.03h0ZM22.14,26.26c-1.13,0-2.05.92-2.05,2.05v25.77c0,1.13.92,2.05,2.05,2.05h35.72c1.13,0,2.05-.92,2.05-2.05v-25.77c0-1.13-.92-2.05-2.05-2.05H22.14Z"/>
  </g>
</svg>