<?xml version="1.0" encoding="UTF-8"?>
<svg id="Layer_2" data-name="Layer 2" xmlns="http://www.w3.org/2000/svg" viewBox="0 0 159.74 159.74">
  <defs>
    <style>
      .cls-1 {
        fill: #6eadb8;
      }

      .cls-2 {
        fill: #fff;
      }

      .cls-3 {
        fill: none;
        stroke: #6eadb8;
        stroke-miterlimit: 10;
        stroke-width: 5px;
      }
    </style>
  </defs>
  <g id="Layer_1-2" data-name="Layer 1">
    <circle class="cls-2" cx="79.87" cy="79.87" r="79.87"/>
    <g>
      <path class="cls-1" d="m79.79,58.57c2.21,0,4.05.77,5.49,2.28,1.44,1.51,2.16,3.63,2.16,6.32v43.76c0,3.03-.72,5.33-2.16,6.89-1.44,1.55-3.28,2.32-5.49,2.32s-4.02-.79-5.41-2.38c-1.39-1.59-2.08-3.87-2.08-6.83v-43.31c0-3,.69-5.26,2.08-6.77,1.39-1.51,3.19-2.28,5.41-2.28Z"/>
      <path class="cls-1" d="m74.54,49.58c-1.49-1.3-2.24-3.12-2.24-5.49,0-2.14.77-3.91,2.3-5.3,1.53-1.39,3.31-2.08,5.35-2.08s3.7.63,5.22,1.89c1.51,1.26,2.27,3.09,2.27,5.49s-.74,4.15-2.21,5.46c-1.48,1.31-3.24,1.97-5.27,1.97s-3.91-.65-5.41-1.94Z"/>
    </g>
    <circle class="cls-3" cx="79.87" cy="79.87" r="67.91"/>
  </g>
</svg>