<?xml version="1.0" encoding="UTF-8"?>
<svg id="Layer_1" data-name="Layer 1" xmlns="http://www.w3.org/2000/svg" viewBox="0 0 80 80">
  <defs>
    <style>
      .cls-1 {
        fill: #3d809e;
      }
    </style>
  </defs>
  <path class="cls-1" d="m78.74,30L39.85,3.11.96,30l5.55,9.49,4.95-3.42v35.84c0,.72.59,1.31,1.31,1.31h54.17c.72,0,1.31-.59,1.31-1.31v-35.84l4.95,3.42,5.55-9.49Zm-38.89,9.93h0c-6.25,0-11.32,5.07-11.32,11.32v19.35h-14.46v-36.34l25.78-17.82,25.78,17.82v36.34h-14.46v-19.35c0-6.25-5.07-11.32-11.32-11.32Z"/>
  <g>
    <path class="cls-1" d="m39.98,27.49c-5.43,0-6.49,5.75-4.66,7.11,1.83,1.36,3.4-.57,4.66-.57s2.83,1.93,4.66.57c1.83-1.36.77-7.11-4.66-7.11Z"/>
    <path class="cls-1" d="m41.73,26.45c.86.26,2.04-1.13,2.29-1.99.26-.86-.24-1.77-1.1-2.03s-1.77.24-2.03,1.1c-.26.86-.02,2.66.84,2.92Z"/>
    <path class="cls-1" d="m47.57,25.71c-.57-.62-1.54-.66-2.17-.09-.62.57-1.31,2.13-.73,2.75.57.62,2.18.08,2.81-.5.62-.57.66-1.54.09-2.17Z"/>
    <path class="cls-1" d="m38.42,26.45c.86-.26,1.1-2.05.84-2.92-.26-.86-1.16-1.36-2.03-1.1-.86.26-1.36,1.16-1.1,2.03.26.86,1.43,2.25,2.29,1.99Z"/>
    <path class="cls-1" d="m35.48,28.37c.57-.62-.11-2.18-.73-2.75-.62-.57-1.59-.53-2.17.09-.57.62-.53,1.59.09,2.17.62.57,2.23,1.12,2.81.5Z"/>
  </g>
</svg>