<?xml version="1.0" encoding="utf-8"?>
<!-- Generator: Adobe Illustrator 27.2.0, SVG Export Plug-In . SVG Version: 6.00 Build 0)  -->
<svg version="1.1" id="Layer_1" xmlns="http://www.w3.org/2000/svg" xmlns:xlink="http://www.w3.org/1999/xlink" x="0px" y="0px"
	 viewBox="0 0 80 80" style="enable-background:new 0 0 80 80;" xml:space="preserve">
<style type="text/css">
	.st0{fill:#E6E7E8;}
	.st1{opacity:0.3;fill:#6EADB8;enable-background:new    ;}
	.st2{fill:#6EADB8;}
</style>
<circle class="st0" cx="40" cy="40" r="38.3"/>
<circle class="st1" cx="40" cy="40" r="33.4"/>
<g>
	<path class="st2" d="M31.8,56.2c0,0-0.1,0-0.1,0c-1.1,0-2.2-0.6-2.8-1.6C25,48.5,18.2,42.9,18.1,42.9c-1.5-1.2-1.7-3.4-0.5-4.9
		c1.2-1.5,3.4-1.7,4.9-0.5c0.3,0.2,5.1,4.3,9.4,9.6c4.3-4.8,13.2-13.8,27-22.7c1.6-1,3.8-0.6,4.8,1c1,1.6,0.6,3.8-1,4.8
		C43.9,42.3,34.7,54.7,34.6,54.8C33.9,55.7,32.9,56.2,31.8,56.2z"/>
</g>
</svg>
