<?xml version="1.0" encoding="UTF-8"?>
<svg id="Layer_1" data-name="Layer 1" xmlns="http://www.w3.org/2000/svg" viewBox="0 0 80 80">
  <defs>
    <style>
      .cls-1 {
        fill: #3d809e;
      }
    </style>
  </defs>
  <path class="cls-1" d="m39.41,4.98h.88c.58,0,1.05-.31,1.29-.78.1-.2.17-.44.17-.68V1.46c0-.24-.07-.44-.14-.64-.24-.47-.75-.81-1.32-.81h-.81c-.81,0-1.46.64-1.46,1.46v2.07c0,.78.61,1.42,1.39,1.46Z"/>
  <path class="cls-1" d="m19.45,4.17c.2.47.71.81,1.29.81h.85c.81-.03,1.42-.64,1.42-1.46V1.46c0-.81-.64-1.46-1.46-1.46h-.81c-.61,0-1.12.34-1.32.85-.14.17-.17.41-.17.61v2.07c0,.24.07.44.17.64h.03Z"/>
  <path class="cls-1" d="m34.56,42.93h5.93c4.2,0,7.76-3.29,8.06-7.52l1.9-26.6c.07-2.1-.71-4.13-2.2-5.66-1.29-1.36-3.02-2.13-4.88-2.3l-.03,3.42c.95.14,1.83.58,2.47,1.25.85.85,1.29,2,1.25,3.12l-1.9,26.53c-.17,2.44-2.24,4.37-4.68,4.37h-21.82c-2.47,0-4.54-1.93-4.71-4.37l-1.86-26.46c-.03-1.19.41-2.34,1.22-3.19.85-.85,1.97-1.32,3.15-1.32h1.15c-.03-.24-.07-.44-.07-.68V1.46c0-.2.03-.44.07-.64h-1.15c-2.13,0-4.1.81-5.59,2.34-1.46,1.52-2.24,3.56-2.17,5.73l1.86,26.53c.3,4.24,3.86,7.52,8.1,7.52h15.89Z"/>
  <path class="cls-1" d="m30.67,58.75c.37,0,.75-.07,1.08-.17,1.63-.47,2.81-1.97,2.81-3.76v-10.2h-10v10.2c0,2.13,1.69,3.86,3.8,3.93h2.3Z"/>
  <path class="cls-1" d="m64.58,58.11v7.96c.54-.17,1.12-.27,1.69-.27s1.15.1,1.69.27v-7.96c0-2.61-1.02-5.08-2.85-6.95-1.86-1.86-4.34-2.88-6.95-2.88-5.42,0-9.83,4.4-9.83,9.83v9.39c0,4.57-3.73,8.3-8.3,8.3-2.24,0-4.3-.85-5.9-2.44-1.56-1.56-2.41-3.66-2.41-5.86v-7.15c-.34.07-.71.1-1.08.1h-2.3v7.05c0,3.12,1.19,6.03,3.42,8.27,2.2,2.2,5.15,3.42,8.27,3.42,6.44,0,11.69-5.25,11.69-11.69v-9.39c0-3.52,2.88-6.44,6.44-6.44,1.69,0,3.32.68,4.54,1.9,1.22,1.22,1.86,2.85,1.86,4.54Z"/>
  <path class="cls-1" d="m67.94,67.87c-.51-.24-1.08-.37-1.66-.37s-1.15.14-1.66.37c-1.93.85-3.32,3.15-3.32,5.86,0,3.46,2.24,6.27,4.98,6.27s5.01-2.81,5.01-6.27c0-2.74-1.39-5.05-3.35-5.86Z"/>
  <path class="cls-1" d="m39.02,21.81c1.25,0,2.27-1.39,2.27-3.1s-1.02-3.1-2.27-3.1-2.27,1.39-2.27,3.1,1.02,3.1,2.27,3.1Z"/>
  <ellipse class="cls-1" cx="19.4" cy="18.58" rx="2.48" ry="3.38"/>
  <ellipse class="cls-1" cx="32.62" cy="14.22" rx="2.89" ry="4.18"/>
  <ellipse class="cls-1" cx="25.59" cy="14.22" rx="2.89" ry="4.18"/>
  <path class="cls-1" d="m20.01,29.18c0,5.26,18.19,5.26,18.19,0s-4.07-9.52-9.1-9.52-9.1,4.26-9.1,9.52Z"/>
</svg>