<?xml version="1.0" encoding="UTF-8"?>
<svg id="Layer_1" data-name="Layer 1" xmlns="http://www.w3.org/2000/svg" viewBox="0 0 80 80">
  <defs>
    <style>
      .cls-1 {
        fill: #3d809e;
      }
    </style>
  </defs>
  <path class="cls-1" d="m78.45,15.79c-.66-.77-1.61-1.22-2.6-1.22-1.25,0-2.83.77-3.52,2.93-.07.23-.15.49-.24.78-1.27,4.18-3.91,12.88-16.2,12.88h-1.92c-.08,0-.16,0-.25,0h-12.15c-8.05,0-8.51-8.77-8.53-9.14l-.2-1.64c0-.3,0-.56-.03-.8-.41-5.91-5.16-10.8-11.05-11.36-.4-.04-.81-.06-1.21-.06-4.6,0-8.78,2.54-10.91,6.62-.17.3-.34.61-.51.96-.86,1.81-2.36,2.72-3.82,3.18-.26.08-.52.15-.79.21,0,0,0,0,0,0-.27.06-.54.11-.82.14-.71.09-1.35.38-1.88.84,0,0-.01,0-.02.01-.18.16-.34.33-.48.52-.58.76-.82,1.7-.69,2.64.03.2.06.4.1.6.05.25.1.48.15.71l.19.8h.04c1.69,5.12,6.42,5.63,11.95,5.68,1.84,0,2.97.81,2.97,4.84v6.17c0,.23,0,.46.02.69-.01.66-.02,1.4-.02,2.23,0,7,1.47,12.51,2.7,15.9.64,1.77,1.03,3.67,1.13,5.56-1.11.24-1.77.8-2.14,1.29-1.2,1.58-.65,3.76-.59,4l.23.83h9.37v-14.75c.49.19.99.37,1.49.51.27.92.56,1.82.88,2.68.62,1.69.99,3.55,1.08,5.44-1.11.24-1.77.8-2.15,1.29-1.2,1.58-.65,3.76-.59,4l.23.83h9.37v-14.06c1.09-.27,2.14-.64,3.14-1.11l1.95-.92c1.32,1.9,3.57,6.88,4.02,9.98-1.08.24-1.72.8-2.09,1.28-1.2,1.58-.65,3.76-.59,4l.23.83h9.37v-12.33c1.91,1.52,3.15,3.77,3.42,6.21-1.09.24-1.74.8-2.11,1.28-1.2,1.58-.65,3.76-.59,4l.23.83h9.37v-1.12c0-.27.07-26.51,0-30.57.01-.51-.14-1.68-.31-2.48,12.43-2.83,15.49-14.28,16.24-19.2.2-1.31-.11-2.53-.88-3.42Zm-22.26,53.32c.26-.34.77-.52,1.5-.52h1.13v-1.13c0-4-2.12-7.77-5.54-9.82-.23-.14-.47-.29-.7-.44l-1.73-1.11v14.23h-5.28c0-.42.06-.89.31-1.22.26-.34.77-.52,1.51-.52h1.13v-1.13c0-3.93-3.65-11.61-5.26-13.18l-.51-.49c1.91-6.46,11.93-14.96,17.84-15.84.09.2.16.41.23.62.16.5.35,1.94.34,2.22v.05s0,.05,0,.05c.07,3.46.02,24.33.01,29.43h-5.28c0-.42.06-.9.31-1.22Zm-26.35,0c.26-.34.77-.52,1.5-.52h1.13v-1.18c0-2.47-.43-4.95-1.24-7.17-.36-.99-.7-2.04-.99-3.12l-.17-.63-.64-.16c-1.13-.28-2.23-.7-3.27-1.25l-1.65-.87v16.12h-5.28c0-.42.06-.89.31-1.22.26-.34.77-.52,1.51-.52h1.13v-1.18c0-2.45-.44-4.97-1.29-7.28-1.17-3.22-2.56-8.47-2.56-15.13,0-.83,0-1.57.02-2.22v-.03s0-.03,0-.03c0-.21-.02-.42-.02-.63v-6.17c0-1.75,0-7.09-5.21-7.1-5.48-.05-8.4-.63-9.65-3.64.69-.21,1.29-.56,1.8-1.08,1.03-1.04,1.37-2.43,1.48-3.31,2.01-.81,3.54-2.21,4.44-4.09.14-.3.28-.57.43-.81l.03-.06c1.73-3.35,5.15-5.44,8.92-5.44.33,0,.66.02.99.05,4.81.46,8.69,4.45,9.02,9.28.01.21.02.44.02.71l.2,1.7c.14,3.17,1.77,8.56,6.68,10.52-3.6,1.1-6.22,4.45-6.22,8.41v5.66c0,4.97,2.36,8.36,3.73,9.91l-.17.03v13.65h-5.27c0-.42.06-.9.31-1.22ZM3.13,22c.21-.28.52-.46.87-.5.09-.01.18-.02.27-.04-.14.39-.34.77-.63,1.07-.21.21-.46.37-.76.47,0-.01,0-.02,0-.04-.05-.34.04-.68.25-.96Z"/>
  <path class="cls-1" d="m27.33,16.54c-.32-.97-1.23-1.63-2.25-1.63s-1.9.63-2.24,1.58l-.92,2.6c-1.52,4.31-2.3,7.36-2.3,11.93h0c0,2.71,2.2,4.9,4.9,4.9s4.9-2.2,4.9-4.9v-3.1c0-4.27-.68-7.03-2.01-11.09l-.09-.29Z"/>
</svg>