<?xml version="1.0" encoding="UTF-8"?>
<svg id="Layer_2" data-name="Layer 2" xmlns="http://www.w3.org/2000/svg" viewBox="0 0 147.72 168.83">
  <defs>
    <style>
      .cls-1 {
        fill: #3d809e;
      }
    </style>
  </defs>
  <g id="Layer_1-2" data-name="Layer 1">
    <path class="cls-1" d="m73.86,168.83c11.65,0,21.1-9.45,21.1-21.1h-42.21c0,11.65,9.45,21.1,21.1,21.1Zm0-148.59l-8.41,1.7c-19.67,4.01-33.79,21.3-33.8,41.37,0,6.63-1.41,23.18-4.84,39.48-1.69,8.09-3.97,16.52-7,23.83h108.09c-3.03-7.3-5.3-15.72-7-23.83-3.43-16.3-4.84-32.86-4.84-39.48,0-20.07-14.13-37.36-33.8-41.36l-8.41-1.72h0Zm65.63,106.39c2.35,4.72,5.08,8.45,8.23,10.55H0c3.15-2.1,5.88-5.83,8.23-10.55,9.5-18.99,12.87-54.02,12.87-63.31,0-25.53,18.15-46.85,42.26-51.71-.58-5.8,3.65-10.97,9.44-11.55,5.8-.58,10.97,3.65,11.55,9.44.07.7.07,1.41,0,2.11,24.59,5,42.26,26.62,42.26,51.71,0,9.29,3.38,44.32,12.87,63.31Z"/>
  </g>
</svg>