<?xml version="1.0" encoding="UTF-8"?><svg id="Layer_2" xmlns="http://www.w3.org/2000/svg" viewBox="0 0 793.89 733.18"><defs><style>.cls-1{fill:#fff;}.cls-2{fill:#c40606;}</style></defs><g id="Layer_1-2"><g><path class="cls-1" d="M93.62,733.18c-33.47,0-63.59-17.22-80.57-46.07-16.98-28.85-17.41-63.54-1.16-92.81L315.22,48.1C331.94,17.98,362.5,0,396.95,0s65.01,17.98,81.73,48.1l303.33,546.2c16.25,29.27,15.81,63.96-1.16,92.81-16.98,28.85-47.1,46.07-80.57,46.07H93.62Z"/><path class="cls-2" d="M28.66,603.62L331.99,57.41c28.31-50.97,101.61-50.97,129.92,0l303.33,546.2c27.5,49.53-8.31,110.38-64.96,110.38H93.62c-56.65,0-92.46-60.85-64.96-110.38Z"/><path class="cls-1" d="M348.33,505.22l-19.49-215.62v-4.07c0-10.33,8.38-18.71,18.71-18.71h98.79c10.33,0,18.71,8.38,18.71,18.71v4.07l-19.91,215.65c-.85,9.19-8.56,16.22-17.79,16.22h-61.23c-9.24,0-16.96-7.05-17.79-16.26Zm-3.09,101.66v-45.99c0-7.93,6.43-14.36,14.36-14.36h74.23c7.93,0,14.36,6.43,14.36,14.36v45.99c0,7.93-6.43,14.36-14.36,14.36h-74.23c-7.93,0-14.36-6.43-14.36-14.36Z"/></g></g></svg>