<?xml version="1.0" encoding="UTF-8"?><svg xmlns="http://www.w3.org/2000/svg" viewBox="0 0 1000 700"><defs><style>.cls-1{fill:#7c5538;}.cls-2{fill:#9bc1f9;}.cls-3{fill:#402436;}.cls-4{fill:#6eadb8;}.cls-5,.cls-6,.cls-7{fill:#fff;}.cls-8{fill:#614a59;}.cls-9{fill:#f37b83;}.cls-10{fill:#020303;}.cls-6{fill-rule:evenodd;}.cls-11{fill:#261308;}.cls-12{fill:#24130c;}.cls-13{fill:#7c5d46;}.cls-14{fill:#997252;}.cls-15{fill:#5c7b8a;}.cls-16{isolation:isolate;}.cls-17{fill:#381c0b;}.cls-18{fill:#b5b5b5;}.cls-18,.cls-19{mix-blend-mode:screen;}.cls-20{fill:#f5f1da;}.cls-21{fill:#e1d7cf;}.cls-22{fill:#754c29;}.cls-23{fill:#ad7a68;}.cls-24,.cls-25{fill:#a97c50;}.cls-25{opacity:.5;}.cls-25,.cls-26{mix-blend-mode:multiply;}.cls-27{fill:#603913;}.cls-28{fill:#9ce8ff;}.cls-29{fill:#b08b6a;}.cls-30{fill:#814218;}.cls-31{fill:#ccc3bc;}.cls-32{fill:#ffd0a2;}.cls-33{fill:#3c251d;}.cls-34{fill:#eef5f4;}.cls-35{fill:#c49a6c;}.cls-36{fill:#645047;}.cls-37{fill:#9d5720;}.cls-38{fill:#4f423a;}.cls-39{fill:#fbfbfb;}.cls-40{fill:#5d5d5d;}.cls-41{fill:#489fcb;}.cls-42{fill:#302822;}.cls-43{fill:#e0d7ce;}.cls-44{fill:#e9495d;}.cls-45{fill:#3aaeb0;}.cls-46{fill:#0b0e19;}.cls-19{fill:#3b3b3b;}.cls-47{fill:#231913;}.cls-26{fill:#e8e8e8;}.cls-48{fill:#f8e7c9;}.cls-49{fill:#875345;}.cls-50{fill:#423227;}.cls-51{fill:#3d809e;}.cls-7{opacity:.6;}.cls-52{fill:#ede7e2;}.cls-53{fill:#fbb5be;}.cls-54{fill:#184655;}.cls-55{fill:#cee1df;}</style></defs><g class="cls-16"><g id="Layer_1"><g><g><path class="cls-12" d="M380.35,433.06c10.67,2.29,20.55,3.76,27.22,2.76-3.71-8.17-15.44-28.58-21-33.82-2.42,.13-4.69,.21-6.82,.29-.5,5.7-.92,22.03,.59,30.77Z"/><path class="cls-35" d="M282.19,414.24c2.67,1.61,8.95,3.01,16.88,4.32,6.58,1.06,14.26,2.08,21.99,3.08,13.21,1.7,26.55,3.41,34.63,5.42,8.01,2.02,16.56,4.26,24.66,6-1.51-8.74-1.09-25.07-.59-30.77-7.09,.28-12.28,.76-14.18,4.36-5.56,0-45.7-2.92-46.32-8.16-.62-5.25,63.61-12.24,75.96-26.25-5.83-5.08-14.75-10.74-23.89-15.97-16.99-9.72-34.78-17.85-34.78-17.85-1.07,.67-3.11,2.2-5.83,4.25-4.86,3.76-11.91,9.33-19.17,15.13-9.61,7.67-19.67,15.73-25.65,20.27-3.85,2.95-6.49,6.89-8.1,11.08-3.78,9.92-1.68,21.4,4.39,25.08Z"/><path class="cls-25" d="M282.19,414.24c2.67,1.61,8.95,3.01,16.88,4.32,6.58,1.06,14.26,2.08,21.99,3.08,13.21,1.7,26.55,3.41,34.63,5.42,8.01,2.02,16.56,4.26,24.66,6-6.65-14.6-62.13-14.41-78.88-22.76-16.78-8.36-20.88-20.07,1.73-31.43,21.19-10.64,68.12,4.82,68.12,4.82v-27.41c-16.99-9.72-34.77-17.85-34.77-17.85-1.07,.67-3.11,2.2-5.83,4.25-4.86,3.76-11.91,9.33-19.17,15.13-9.61,7.67-19.67,15.73-25.65,20.27-3.85,2.95-6.49,6.89-8.1,11.08-3.78,9.92-1.68,21.4,4.39,25.08Z"/><path class="cls-12" d="M657.08,604.34c4.94,4.68,27.79,7,38.91,4.68,2.35-1.1,4.97-4.19,7.06-7.42-8.3-6.57-20.87-12.31-31.22-15.39-4.38,4.26-12.31,13.03-14.75,18.13Z"/><path class="cls-35" d="M671.83,586.21c10.35,3.08,22.92,8.81,31.22,15.39,2.35-3.59,4.05-7.37,4.05-8.91,1.24,1.74,5.56,4.08,9.26,8.16,2.47-6.99,11.74-14.59,12.35-26.24,.62-11.67,14.21-51.32,20.38-71.73,6.18-20.41-2.47-22.74-7.4-26.82-3.51-2.91-22.75-17.8-35.28-29.16-5.14-4.64-9.12-8.71-10.43-11.08l-46.32,39.65s11.31,4.45,24.43,10.28c12.89,5.72,27.52,12.79,34.86,18.29,14.82,11.08,3.71,41.41,1.23,50.74-2.47,9.35-11.12,19.83-17.91,19.83s-15.44,7.57-17.91,9.33c-.52,.35-1.4,1.15-2.54,2.27Z"/><path class="cls-25" d="M671.83,586.21c10.35,3.08,22.92,8.81,31.22,15.39,0,0-9.73-12.41-13.86-15.39-4.12-2.99,15.64-6.35,28.14-29.68,12.48-23.33,3.17-48.98-6.99-63.57-10.15-14.58-7.13-31.3-3.92-46.07-5.14-4.64-9.12-8.71-10.43-11.08l-46.32,39.65s11.31,4.45,24.43,10.28c12.89,5.72,27.52,12.79,34.86,18.29,14.82,11.08,3.71,41.41,1.23,50.74-2.47,9.35-11.12,19.83-17.91,19.83s-15.44,7.57-17.91,9.33c-.52,.35-1.4,1.15-2.54,2.27Z"/><path class="cls-12" d="M298.43,423.97c8.18,2.82,15.29,5.11,18.97,6.01,9.63-7.57-2.47-32.06-3.71-34.98-1.43,.44-3.55,.6-6.1,.53-2.89,5.91-9.24,20.64-9.17,28.44Z"/><path class="cls-35" d="M229.09,354.18c3.7,9.32,21,47.81,25.32,51.89,2.97,2.8,26.07,11.66,44.02,17.9-.07-7.8,6.28-22.53,9.17-28.44-10.5-.29-28.07-4.6-33.5-8.25-1.93-1.32-4.44-4.46-6.92-8.4-6.1-9.76-11.96-24.32-8.45-27.62,2.79-2.64,28.46,2.16,52.17,6.44h.02c18.2,3.29,35.25,6.22,39.83,5.22-.82-.86-1.81-1.84-2.87-2.96-4.07-4.15-9.8-9.92-15.93-16.05-5.73-5.73-11.83-11.84-17.25-17.2-9.21-9.16-16.45-16.29-16.45-16.29-2.84,.12-6.89,.66-11.61,1.46-17.78,3.08-44.99,10.13-51.63,14.29-8.4,5.25-9.63,18.65-5.92,28Z"/><path class="cls-35" d="M173.9,258.29c-.13,4.36,1.41,8.96,6.92,13.91,5.53,4.95,11.02,8.68,14.21,8.53,3.16-.16,8.03-1.93,9.21-2.63,1.33,1.54,6.95,1.23,8.5,.53,1.58-.67,3.31-4.51,5.51-5.5,2.17-.96,5.81-2.93,7.09-4.94,.77-1.22,0-4.88-.54-8.28-.15-1-.3-1.96-.37-2.87-.1-1.1-.1-2.08,.13-2.77v-.06l.12-.3c.61-1.44,2.79-4.24,5.36-7.39,.74-.88,1.51-1.8,2.24-2.73,3.09-3.71,6.25-7.56,7.83-10.15,3.49-5.72,8.8-15.86,8.25-18.13,3.65-1.77,8.25-4.34,12.46-9.09,.24-.28,.49-.59,.74-.88,0,0,.02-.04,.05-.08,.09-.09,.17-.21,.24-.32,.25-.29,.47-.6,.67-.89,.15-.22,.29-.42,.49-.67,0,0,.02-.04,.05-.09,.05-.07,.1-.11,.15-.18,.06-.09,.13-.17,.17-.25,.2-.28,.4-.56,.59-.83,.12-.17,.25-.33,.42-.48,.08-.09,.15-.21,.22-.29,.02-.07,.07-.12,.15-.17,.07-.1,.15-.19,.19-.23,.05-.03,.05-.05,.07-.08,.2-.21,.4-.41,.62-.61,.4-.39,.82-.75,1.24-1.06,.32-.24,.66-.49,1.01-.71,.4-.25,.79-.48,1.21-.67,.32-.14,.64-.32,.99-.46,.15-.07,.29-.12,.47-.19,.37-.11,.74-.25,1.14-.36,.44-.1,.88-.21,1.35-.29,.03-.03,.05-.03,.1-.03,.42-.06,.86-.13,1.31-.16,.47-.05,.94-.08,1.43-.08,2.67,0,5.49,.63,8.4,1.79,3.19,1.28,9.19,8.02,15.79,16.13,1.85,2.29,3.78,4.72,5.71,7.16t.05,.07c8.97,11.49,17.81,23.37,21.27,26.22,2.05-1.89,7.04-13.74,11.02-26.5,2.69-8.61,4.94-17.64,5.48-24.29,.02-.23,.05-.47,.05-.67,2.1-31.42-48.34-84.88-53.85-90.66-.35-.36-.51-.52-.51-.52-26.83-6.16-52.89-2.1-70.29,4.53-1.01,.37-2,.79-3.01,1.22-.07,.02-.14,.06-.24,.09l-1.04,.47c-1.23,.56-2.47,1.14-3.7,1.74-.42,.19-.82,.4-1.21,.6-2.15,1.1-4.25,2.3-6.27,3.55-2.24,1.39-4.42,2.84-6.47,4.37-.54,.42-1.09,.83-1.61,1.26-.02,0-.02,.02-.05,.05-2.24,1.76-4.35,3.61-6.23,5.53-1.31,1.31-2.52,2.65-3.61,4.01-2.62,3.26-4.59,6.63-5.68,10-1.43,4.46-2.35,8.63-2.84,12.52-.1,.59-.17,1.15-.22,1.71-.15,1.48-.24,2.91-.29,4.29-.03,.38-.03,.72-.03,1.08-.18,8.27,1.28,15.19,2.56,20.92v.02c.65,2.91,1.24,5.54,1.53,7.88,.54,4.34-.71,16.61-2.3,29.62-.07,.56-.13,1.12-.2,1.71-.05,.58-.15,1.33-.22,1.96-.05,.18-.07,.4-.07,.6-.03,.13-.05,.28-.05,.41-.05,.33-.08,.55-.08,.55-.05,.41-.1,.83-.15,1.25-1.7,13.77-3.51,27-3.63,31.26Z"/><path class="cls-37" d="M214.03,254.9c-.35,.99-.69,1.97-1.09,2.95-.37,.99-.75,1.98-1.14,2.93-.79,1.95-1.56,3.89-2.39,5.82-.81,1.95-1.65,3.85-2.5,5.77-.42,.96-.86,1.92-1.32,2.86-.42,.97-.91,1.9-1.37,2.87,1.29-1.72,2.4-3.56,3.41-5.42,1.03-1.86,1.91-3.78,2.74-5.72,.81-1.96,1.56-3.94,2.18-5.95,.61-2,1.2-4.02,1.48-6.11Z"/><path class="cls-10" d="M178.72,260.39c.27-.77,1.06-1.15,1.78-1.37,.74-.21,1.51-.21,2.21,0,.7,.18,1.29,.6,1.77,1.12,.47,.5,.84,1.14,1.19,1.79,.65,1.37,1.17,2.8,1.53,4.26,.4,1.45,.7,2.96,.76,4.41,.03,.7,.02,1.48-.17,1.94-.21,.44-.4,.54-.84,.53-.46-.02-1.08-.39-1.56-.87-.48-.47-.85-1.02-1.14-1.69-.63-1.44-1.3-2.84-1.85-4.3-.29-.73-.52-1.47-.67-2.2-.09-.37-.13-.75-.11-1.12,0-.36,.13-.75,.44-1.02-.39,.17-.62,.58-.74,.98-.13,.4-.15,.79-.16,1.21,0,.83,.12,1.63,.27,2.41,.33,1.56,.81,3.11,1.31,4.6,.23,.79,.67,1.64,1.32,2.31,.64,.67,1.43,1.33,2.62,1.53,.57,.1,1.3,0,1.86-.34,.29-.16,.51-.35,.73-.62l.09-.13c.08-.09,.1-.13,.15-.21,.1-.15,.15-.27,.21-.4,.37-1.02,.34-1.86,.33-2.72-.27-3.32-1.21-6.41-2.93-9.28-.46-.71-.94-1.41-1.67-2.01-.69-.59-1.57-1.01-2.5-1.15-.93-.1-1.86,.07-2.66,.46-.74,.37-1.5,1.05-1.54,1.87Z"/><path class="cls-37" d="M211.99,251.44c.44-.56,.95-.93,1.51-1.03,.54-.07,1.11,.02,1.61,.29,.51,.25,.95,.65,1.26,1.14,.31,.48,.48,1.09,.6,1.75,.32-.59,.4-1.37,.13-2.06-.23-.71-.79-1.33-1.5-1.7-.69-.35-1.61-.47-2.38-.11-.79,.29-1.23,1.03-1.24,1.72Z"/><path class="cls-5" d="M194.22,187.65c.8,.09,.92-1.89,3.49-5.32,1.26-1.68,2.15-2.43,2.88-4.3,.12-.29,.4-1.04,.71-2.78,.27-1.52,.55-3.66,.53-6.29-1.69,.21-4.73,.84-7.43,3.04-1.15,.94-2.94,2.4-3.29,4.64-.18,1.19,.18,1.66,1.05,4.55,1.41,4.68,1.33,6.37,2.06,6.45Z"/><path d="M192.16,181.2c1.47,1.25,3.59,1.73,5.55,1.13,1.16-1.56,2.29-3.03,2.88-4.3,.39-.81,.59-1.77,.71-2.78-.04-.13-.1-.24-.16-.36-1.2-2.43-4.1-3.61-6.75-2.89-1.64,1.24-2.8,2.75-3.29,4.64-.31,1.14,.27,2.74,1.05,4.55Z"/><path class="cls-37" d="M187.83,174.47c-.77,.77-1.27,1.79-1.53,2.83-.29,1.05-.31,2.16-.16,3.22,.31,2.14,1.28,4.14,2.75,5.72-.76-1.96-1.46-3.86-1.73-5.83-.29-1.98-.12-3.97,.67-5.93Z"/><path class="cls-37" d="M188.32,194.34c-.1,1.56-.31,3.11-.5,4.67l-.63,4.64-1.25,9.35c1.19-2.97,1.83-6.07,2.3-9.19,.21-1.58,.35-3.14,.39-4.73,.05-1.58,0-3.17-.3-4.73Z"/><path class="cls-37" d="M248.33,215.51c-1.44-.12-2.86-.26-4.29-.46-1.41-.14-2.84-.35-4.24-.56-2.83-.43-5.68-.84-8.48-1.31l-2.11-.37c-.71-.12-1.36-.29-2.15-.39-1.46-.2-2.93-.23-4.39-.11-1.45,.12-2.89,.36-4.29,.83-.67,.25-1.35,.56-1.91,1.02-.58,.44-1,1.14-.95,1.81,.08-.68,.55-1.24,1.11-1.6,.57-.39,1.25-.6,1.92-.78,1.35-.37,2.78-.5,4.18-.53,1.41-.02,2.82,.03,4.2,.26,.63,.1,1.36,.3,2.06,.43l2.13,.39c2.86,.45,5.69,.85,8.56,1.09,2.88,.25,5.75,.45,8.64,.28Z"/><path class="cls-37" d="M224.54,254.25l2.48-7.97,2.56-7.92c.85-2.66,1.77-5.27,2.67-7.9,.45-1.31,.93-2.6,1.46-3.92,.5-1.29,1.04-2.57,1.67-3.83-1.64,2.33-2.77,4.91-3.87,7.49-1.11,2.57-2.03,5.22-2.9,7.84-.87,2.68-1.67,5.36-2.35,8.06-.69,2.68-1.3,5.41-1.71,8.15Z"/><path class="cls-7" d="M192.63,178.7c.39,.76,1.35,1.09,2.17,.74,.82-.37,1.18-1.29,.8-2.06-.38-.78-1.37-1.1-2.19-.75-.82,.37-1.16,1.29-.78,2.06Z"/><path class="cls-35" d="M286.52,252.51c-1.16,10.92-2.09,33.54-.42,53.86,.15,1.87,.32,3.68,.54,5.51,1.26,11.73,3.54,22.18,7.29,28.46,.02,.06,.05,.08,.07,.13,3.29,5.46,9.12,11.43,16.9,17.22h.02c17.69,13.13,45.53,25.3,76.88,28.54,.35,.28,.67,.55,1.01,.81,4.49,3.66,9.09,7.04,13.76,10.14,63.91,42.98,139.97,39.53,180.96,27.7,.64-.17,1.28-.37,1.9-.56,3.36,2.95,11.14,6.93,21.25,10.88,24.72,9.65,63.36,19.09,84.98,12.45,14.03-4.28,24.24-14.22,30.98-26.93v-.03c7.9-14.86,11.09-33.54,10.2-51.55-1.66-33.45-37.9-71.54-70.83-86.31-27.62-12.43-94.44-14.63-132.93-22.17-7.38-1.48-13.76-3.1-18.57-5.07-16.19-6.53-35.18-16.9-50.47-28.66-6.53-5.03-12.38-10.28-17.07-15.64-15.44-17.67-73.35-92.36-153.17-105.7-1.08-.2-2.17-.36-3.26-.52,1.41,13.13-1.48,49.52-9.71,77.41-1.53,5.17-3.24,10.05-5.14,14.42,14,9.35,17.22,33.12,14.82,55.6Z"/><path class="cls-12" d="M564.44,622.43c8.03,5.24,27.79,8.16,41.38,0-3.7-9.92-13.22-19.5-27.92-20.83-1.71,1.19-2.99,2.52-3.58,3.91-2.47,5.84-6.79,11.67-9.88,16.92Z"/><path class="cls-35" d="M645.39,525.04c6.13,10.49,10.45,29.74-4.99,44.32-15.44,14.58-30.88,27.99-40.15,26.82-7.04-.88-16.92,1.6-22.35,5.41,0,0,.05,0,.12,.02,.23,0,.47,.03,.69,.08,.23,0,.48,.04,.74,.06,13.81,1.87,22.77,11.11,26.36,20.67,8.03,0,17.91-2.92,17.91-2.92,4.94-2.33,18.52-14,28.41-25.65,9.88-11.67,42.62-47.24,46.12-57.16,3.51-9.9-12.77-27.41-19.56-38.48-2.5-4.08-4.08-8.4-4.6-12.47-.94-6.96,1.21-13.17,7.07-16.12,5.36-2.7,15.86-11.65,25.25-22.74,6.85-8.11,13.06-17.33,16.23-26.17v-.03s-73.25-14.05-120.85-22.97c-3.66-.69-7.16-1.37-10.47-1.99-9.86-1.81-17.99-3.29-23.17-4.24,1.38,4.26,3.76,9.64,6.47,15.36,2.81,5.91,6.02,12.2,8.92,18.04,4.27,8.6,7.9,16.27,8.69,20.25,1.85,9.33,47.03,69.4,53.16,79.9Z"/><path class="cls-27" d="M717.77,330.16c27,.69,86.29,14.09,113.46,47.34,27.18,33.24,45.7,81.64,58.68,95.05-7.41-1.16-17.91-6.41-21-9.92,5.56,8.76,11.12,20.42,16.06,24.5-3.71-1.17-14.21-5.84-18.53-10.5,4.32,8.16,9.88,28,26.56,29.16-8.03,7-29.64,5.25-46.94-12.24-17.29-17.49-51.26-79.9-59.91-88.64,0,2.33,0,22.74,6.17,30.91-14.2-10.5-19.76-53.07-26.56-59.5-6.79-6.41-33.12-27.98-43.11-29.73-7.52-8.16-4.88-16.42-4.88-16.42Z"/><path class="cls-22" d="M858.55,477.13c-.79-1.67-1.52-3.27-2.09-4.3-2.56-4.65-1.5-10.26,2.38-13.78-2.99-5.1-1.52-11.55,3.5-15.05,.35-.24,.69-.44,1.05-.64-1.51-2.68-3.06-5.45-4.68-8.36-10.24-18.43-23-41.38-37.79-58.9-17.56-20.8-49.94-32.39-75.67-37.68,14.29,9.39,28.24,21.65,28.45,21.83,4.76,4.37,32.04,42.92,44.12,61.8,12.26,19.15,29.04,45.37,38.38,54.53,1.18,1.15,2.37,2.21,3.57,3.18-.44-.92-.85-1.81-1.23-2.62Z"/><path class="cls-27" d="M311.64,118.67c3.64,2.65,22.61,15.84,30.1,25.76,7.36,9.74,14.78,21.71,22.6,27.38-1.23-4.06-7-16.49-6.18-20.19,5.35,8.35,23.47,20.78,23.88,29.15,6.18-4.08,0-13.03,0-16.9,5.76,5.05,24.41,10.92,38.97,22.37-9.33-18.48-22.91-30.18-28.26-34.05,10.29,1.58,16.36,2.98,16.36,2.98,0,0-28.3-19.91-36.13-25.62-7.82-5.72-25.85-10.48-31.25-11.4,13.13-2.86,15.19-6.38,18.49-11.03-8.65,0-21.32-.91-24.66-2.42,6.96-4.99,7.37-4.95,9.42-8.24-13.18,.6-26.76,.53-31.29-.43,6.59-4.47,14.82-7.38,14.82-7.38,0,0-30.6-4.08-39.59-.2,7.07-5.83,15.3-10.07,17.77-12.43-13.58,4.65-25.94,6.34-37.47,8.42,4.12-1.82,4.94-7.42,4.94-7.42,0,0-21.82,8.91-32.94,15.04-11.12,6.12-22.65,9.99-25.53,15.06-2.88,5.05-2.25,6.89,.93,11.03,8.48,0,20.07-5.19,29.95-4.41,9.88,.77,16.91-7.8,26.16-7.8,9.25,.02,29.16,5.63,38.89,12.75Z"/><path class="cls-24" d="M264.51,200.11c-.44,1.22-.91,2.36-1.46,3.39,.05-.07,.1-.11,.15-.18,.06-.09,.13-.17,.17-.25,.2-.28,.4-.56,.59-.83,.12-.17,.27-.33,.42-.48,.08-.09,.15-.21,.22-.29,.02-.07,.07-.12,.15-.17,.07-.1,.15-.17,.19-.23,.05-.03,.05-.05,.07-.08,.2-.21,.4-.41,.62-.61,.4-.39,.82-.75,1.24-1.06,.32-.24,.66-.49,1.01-.71,.4-.25,.79-.48,1.21-.67,.32-.14,.64-.32,.99-.46,.15-.07,.29-.12,.47-.19,.37-.11,.74-.25,1.14-.36,14,9.35,17.22,33.12,14.82,55.6-1.16,10.92-2.09,33.54-.42,53.86,1.88-2.16,8.39-73.91,22.2-92.64,.89-1.24,1.85-2.25,2.91-2.98-12.79-4.41-24.67-15.34-34.38-28.27-11.27-15.08-22.19-30.93-26.88-34.63,4.97,5.39,13.96,19.44,16.11,26.64,1.78,5.95,1.38,16.39-1.14,24.36-.15,.44-.3,.85-.42,1.25Z"/><path class="cls-24" d="M267.18,378.88c-6.1-9.76-11.96-24.32-8.45-27.62,2.79-2.64,28.46,2.16,52.17,6.44h.02c17.69,13.13,45.53,25.3,76.88,28.54,.35,.28,.67,.55,1.01,.81,4.49,3.66,9.09,7.04,13.76,10.14,63.91,42.98,139.97,39.53,180.96,27.7,4.27,8.6,7.9,16.27,8.69,20.25,1.85,9.33,47.03,69.4,53.16,79.9,6.13,10.49,10.45,29.74-4.99,44.32-15.44,14.58-30.88,27.99-40.15,26.82-7.04-.88-16.92,1.6-22.35,5.41,0,0,.05,0,.12,.02,.23,0,.47,.03,.69,.08,.23,0,.48,.04,.74,.06,5.86,.62,26.61,2.47,36.44-.16,11.54-3.09,45.31-48.18,52.72-60.62-3.31-10.88-34.58-44.33-44.47-68.43-4.62-11.29-12.22-23.74-17.46-37.34-4.5-11.67-7.24-24.15-4.89-37.48,.74-4.37,2.05-8.82,4.03-13.37-4.77,3.93-9.59,7.77-14.5,11.38-5.41,3.99-10.94,7.75-16.7,11.12-21.96,12.92-47.08,20.71-80.39,17.11-49.95-5.4-99.21-39.41-103.64-50.62-10.99-1.87-28.03-3.67-42.71-13.39-5.85-3.89-11.36-9.08-15.93-16.05-4.89-7.47-8.72-16.98-10.85-29.2-1.75,4.71-3.9,8.68-6.4,12.01-5.51,7.36-12.63,11.64-20.7,13.77-8.84,2.31-18.85,2.06-29.05,.46-23.12-3.59-7.71,27.58,2.22,37.94Z"/><path class="cls-35" d="M208.38,122.73c-3.51-3.67-13.9-6.92-19-8.51-9.36-2.91-22.79-9.75-27.13-12.82,.95,3.66,12.95,21.14,15.53,23.12,2.61,1.97,10.34,6.73,12.96,6.66,2.61-.08,7.7-.97,9.03,1.27,5.18-2.62,9-6.76,8.61-9.73Z"/><path class="cls-27" d="M218.23,110.37c-3.84-3.85-19.76,17.47-22.77-5.27-5.55,3-10.82,10.1-11.54,20.99-1.32-2.42-2.7-3.52-4.89-5.47,1.5,10.88-2.53,23.13-2,34.4,4.49-7.74,11.54-13.3,17.24-20.91,5.7-7.61,24.36-13.97,24.36-13.97l-.4-9.77Z"/><g><path class="cls-24" d="M173.36,99.18c.93,3.67,12.94,21.15,15.53,23.12,2.57,2,9.45,10.63,12.07,10.55,2.77-1.36,5.95-3.52,9.92-2.62-9.83-12.32-28.28-19.09-37.52-31.05Z"/><path class="cls-35" d="M173.36,99.18c9.24,11.96,27.69,18.74,37.52,31.05,5.18-2.62,10.74-1.85,10.31-4.82-3.9-8.09-15.61-11.82-20.72-13.4-9.33-2.92-22.78-9.76-27.11-12.82Z"/></g></g><g><path class="cls-17" d="M624.86,130.41c17.19,9.63,18.89,66.38,27.76,69.72,8.88,3.34,18.69-1.19,18.69-1.19,0,6.42-16.99,27.56-16.99,27.56l-64.92-28.7-2.18-51.16,37.64-16.24Z"/><path class="cls-32" d="M618.51,644.58c.19,1.38-2.05,9.55-.6,10.74,1.44,1.19,35.47,34.55,29.8,42.13-9.51-1.3-44.95-24.94-44.95-24.94-.99-4.68,1.36-10.71,3.22-13.96,1.86-3.24,.78-13.4,.78-13.4l7.53-7.18,4.23,6.6Z"/><path class="cls-20" d="M647.7,697.45c-9.51-1.3-44.95-24.94-44.95-24.94-.95-4.49,1.18-10.21,2.99-13.53,11.1,7.44,24.54,16,21.84,6.15,10.09,10.8,23.9,27.27,20.13,32.32Z"/><path class="cls-32" d="M564.11,644.52c-.06,1.39,2.98,9.3,1.66,10.63-1.32,1.33-31.91,37.86-25.51,44.86,9.34-2.22,42.29-29.24,42.29-29.24,.52-4.75-2.41-10.53-4.57-13.57-2.17-3.04-2.09-13.25-2.09-13.25l-8.2-6.4-3.56,6.98Z"/><path class="cls-20" d="M540.25,700c9.34-2.22,42.29-29.24,42.29-29.24,.5-4.56-2.17-10.04-4.3-13.17-10.31,8.49-22.85,18.33-21.13,8.26-8.98,11.74-21.11,29.48-16.85,34.14Z"/><path class="cls-51" d="M648.09,500.6c-3.25,33.8-29.58,143.97-29.58,143.97-4.85,1.37-11.76,.58-11.76,.58-14.98-83.19-20.17-226.96-20.17-226.96l-17.62-89.1,66-3.25,13.14,174.76Z"/><path class="cls-26" d="M580.82,338.41c-7.03-2.02,9.8-7.15,25.48-11.16l23.73-1.17,7.48,33.7,10.58,140.81c-3.25,33.8-29.58,143.97-29.58,143.97-1.36,.38-2.88,.6-4.37,.7,10.78-47.37,32.64-127.47,21.17-129.68-25.79,7.03-23.04,16.72-25.79,7.03-2.75-9.69,17.36-185.37-28.71-184.22Z"/><path class="cls-51" d="M584.97,431.5c8.16,97.14-9.22,212.15-9.22,212.15-2.91,2.41-12.07,.59-12.07,.59-23.34-74.84-29.18-231.92-29.18-231.92l42.48,2.94,7.98,16.24Z"/><polygon class="cls-5" points="623.45 207.2 552.93 210.67 544.14 367.63 580.82 338.41 622.67 337.41 623.45 207.2"/><path class="cls-51" d="M539.48,211.34c-7.39,8.68-6.94,7.41-9.41,13.7-2.46,6.29,6.35,72.64-18.43,94.02,22.6,16.28,49.04,.61,49.04,.61l-2.61-53.05-18.6-55.29Z"/><path class="cls-51" d="M573.14,168.1c-14.24,7.76-36.84,40.12-36.84,40.12,2.35,11.98,25.54,129.79,24.68,137.9,2.5-66.91,1.41-128.39,.81-131.97-.6-3.59,19.14-20.73,19.14-20.73l-7.8-25.32Z"/><path class="cls-51" d="M649.49,193.57c-3.09-6.4-28.7-9.61-28.7-9.61l-.56,71.28-5.64,75.13s9.29,162.35-2.38,186.36c43.98-12.75,51.85-15.4,53.68-27.59s-3.53-116.04-23.56-149.19c-.75-40.9,7.16-146.38,7.16-146.38Z"/><path class="cls-51" d="M597.46,168.36c16.85,2.94,45.18,25.55,45.18,25.55-7.04,22.08-27.09,90.01-28.04,136.46,3.89-95.96,1.22-106.54-.67-116.9-1.9-10.37-18.28-30.98-18.23-32.37,.06-1.39,1.75-12.74,1.75-12.74Z"/><path class="cls-26" d="M562.36,187.34c1.69-6.22,7.07-13.55,10.68-14.36,3.61-.81,19.28-3.09,24.84-1.22,5.56,1.87,10.79,9.24,11.43,13.21,.64,3.97-23.12,11.72-23.12,11.72l-23.83-9.35Z"/><path class="cls-15" d="M613.96,263.69c16.36-35.28,18.09-68.91,4.5-87.76-7.37-10.22-18.46-14.81-32.08-13.27-9.19,1.04-16.52,5.09-21.81,12.04-13.83,18.18-9.02,49.72-8.81,51.06l2.98-.47c-.05-.31-4.82-31.62,8.23-48.76,4.77-6.26,11.41-9.92,19.74-10.86,12.48-1.42,22.6,2.75,29.29,12.04,12.76,17.69,10.88,50.95-4.79,84.72l2.74,1.27Z"/><path class="cls-17" d="M614.3,21.38c-8.56-8.84-47.03-21.88-70.31,4.22-23.29,26.1-16.91,100.76,8.03,118.05,24.95,17.3,22.62,12.81,22.62,12.81l32.89-9.82c20.74-6.64,34.74-48.54,37.37-64.36,2.62-15.82-.99-61.86-30.59-60.9Z"/><path class="cls-32" d="M597.99,149.48c-1.01,11.52-3.27,34.69,11.32,35.48,5.52,23.92,4.62,28.5,4.62,28.5-11.69,12.11-47.28,11.02-52.14,.68-3.31-17.42,.57-26.8,.57-26.8,7.96-3.48,10.03-6.23,9.74-16.61-.29-10.38-2.34-20.87-2.34-20.87l28.23-.38Z"/><path class="cls-26" d="M597.54,154.93c-2.45,1.1-5.11,2.1-8.01,3.04-4.78,1.55-11.76,2.16-16.43,.29-.74-.29-1.45-.61-2.16-.92-.59-4.42-1.18-7.47-1.18-7.47l28.23-.38c-.14,1.61-.31,3.46-.45,5.44Z"/><path class="cls-32" d="M631.78,73.1c-5.5,52.95-9.58,71.34-41.1,81.55-4.78,1.55-11.76,2.16-16.43,.29-29.44-11.78-35.77-40.7-32.88-79.28,14.86,2.29,63.26-24.28,69.05-33.45,22.13,19.51,21.37,30.89,21.37,30.89Z"/><path class="cls-11" d="M560.23,91.27c-.77-.04-1.5,.35-2.14,1.04l-6.51-1.04,5.13,3.45c-.38,1.03-.64,2.23-.7,3.53-.19,3.96,1.38,7.25,3.51,7.36,2.13,.11,4.02-3.02,4.22-6.97,.19-3.96-1.38-7.25-3.51-7.36Z"/><path class="cls-18" d="M566.93,98.29c-.05,1.08-1.46,1.89-3.14,1.81-1.68-.08-3-1.03-2.94-2.11,.05-1.08,1.46-1.89,3.14-1.81,1.68,.08,3,1.03,2.94,2.11Z"/><path class="cls-11" d="M602.4,92.21c-.77-.04-1.5,.35-2.14,1.04l-6.51-1.04,5.13,3.45c-.38,1.03-.64,2.23-.7,3.53-.19,3.96,1.38,7.25,3.51,7.36,2.13,.11,4.02-3.02,4.22-6.97,.19-3.96-1.38-7.25-3.51-7.36Z"/><path class="cls-18" d="M609.09,99.23c-.05,1.08-1.46,1.89-3.14,1.81-1.68-.08-3-1.03-2.94-2.11,.05-1.08,1.46-1.89,3.14-1.81,1.68,.08,3,1.03,2.94,2.11Z"/><path class="cls-11" d="M617.33,82.97c-4.22-1.3-21.33,.58-22.14-.51-.81-1.09-1.81-8.04,2.17-7.67,3.99,.37,17.49,1.97,19.97,8.18Z"/><path class="cls-11" d="M548.44,85.25c4.07-1.71,20.78-2.36,21.48-3.53,.7-1.17,1.02-8.18-2.92-7.42s-16.71,4.53-18.57,10.95Z"/><path class="cls-32" d="M529.18,111.46c3.99,4.05,9.42,5.16,12.13,2.49,2.71-2.67,1.66-8.12-2.33-12.16-3.99-4.05-9.42-5.16-12.13-2.49-2.71,2.67-1.66,8.12,2.33,12.16Z"/><path class="cls-26" d="M540.53,110.16c-.74-7.48-11.11-13.01-13.35-6.91,7.38-3.99,13.35,6.91,13.35,6.91Z"/><path class="cls-32" d="M638.59,111.6c-4.95,3.25-10.73,3.2-12.91-.11-2.17-3.31,.08-8.63,5.03-11.88,4.95-3.25,10.73-3.2,12.91,.11,2.17,3.31-.08,8.63-5.03,11.88Z"/><path class="cls-26" d="M627.31,107.8c2.39-7.46,14.17-10.83,15.12-4.13-6.64-5.68-15.12,4.13-15.12,4.13Z"/><path class="cls-26" d="M585.3,112.11c.16,2.06-.83,3.61-4.44,3.85-2.78,.18-3.66-1.14-3.58-3,1.31,2.16,5.52,3.6,8.02-.84Z"/><path class="cls-26" d="M535.54,433.74l3.06-16.12,.77-4.96,29.41,2.03c.18,8.44,.09,14.85-.79,16.6-3.1,6.2-6.11,67.97-3.68,80.7,2.43,12.73-7.37,9.81-14.17,9.77-6.81-.04,6.09,77.57,13.54,122.48-18.05-57.88-25.64-164.96-28.15-210.51Z"/><path class="cls-19" d="M578.13,112.97c.04,.81,1.39,1.4,3.01,1.32,1.62-.08,2.91-.8,2.87-1.61-.04-.81-1.36-.8-2.98-.72s-2.94,.2-2.9,1.01Z"/><path class="cls-51" d="M555.94,407.61c3.05,56.93-2.79,99.56,1.97,111.8-29.42-14.05-32.51-15.41-33.24-22.56-.73-7.15,1.47-98.12,2.17-112.07,.7-13.95,16.23-82.38,16.23-82.38l12.86,105.22Z"/><path class="cls-26" d="M589.28,133.72c-5.4,3.04-14.34,1.84-15.46,.76,8.65,6.82,13.7,.59,15.46-.76Z"/><polygon class="cls-15" points="571.88 311.56 610.58 437.43 538.93 435.86 498.44 319.8 571.88 311.56"/><path class="cls-32" d="M506.3,346.26c3.09,3.17,9.01,6.36,15.96,7.44,6.95,1.08,2.91,18.85-12.69,14.8-15.6-4.05-3.27-22.24-3.27-22.24Z"/><path class="cls-40" d="M602.16,266.31c.24,4.97,4.31,8.81,9.07,8.58,4.76-.23,8.43-4.46,8.18-9.43-.24-4.97-4.31-8.81-9.07-8.58-4.76,.23-8.43,4.46-8.18,9.43Z"/><path class="cls-15" d="M544.25,276.29l3.01-.24c-3.1-39.75,.48-47.02,10.23-49.05,4.1-.85,7.76-.07,10.89,2.33,6.47,4.95,10.41,16.62,11.41,33.74l3.02-.18c-1.07-18.28-5.3-30.38-12.59-35.96-3.81-2.92-8.42-3.92-13.34-2.89-12.9,2.69-15.62,13.91-12.63,52.24Z"/><path class="cls-40" d="M576.42,265.54c.13,2.6,2.34,4.61,4.95,4.48,2.6-.13,4.61-2.34,4.48-4.95-.13-2.6-2.34-4.61-4.95-4.48-2.6,.13-4.61,2.34-4.48,4.95Z"/><path class="cls-19" d="M577.6,265.48c.1,1.95,1.55-.83,3.5-.93,1.95-.1,3.67,2.53,3.57,.58-.1-1.95-1.76-3.46-3.71-3.36-1.95,.1-3.46,1.76-3.36,3.71Z"/><path class="cls-40" d="M540.95,278.35c.13,2.6,2.34,4.61,4.95,4.48,2.6-.13,4.61-2.34,4.48-4.95-.13-2.6-2.34-4.61-4.95-4.48-2.6,.13-4.61,2.34-4.48,4.95Z"/><path class="cls-32" d="M609.67,375.22c-10.53,16.4-26.39,24.48-30.35,18.38-3.95-6.11,1.44-11.79,7.44-15.24,6-3.45,12.32-10.81,12.32-10.81l10.58,7.67Z"/><path class="cls-26" d="M616.84,380.48c-.37-10.53-.77-20.1-1.13-28,10.51-14.42,18.91-29.5,19.93-40.16,1.38-14.47-3.64-36.15,12.24-95.97-2.27,33.35-6.08,94.65-5.55,123.59,2.46,4.07,4.69,9.21,6.72,15.1-14.29,14.02-26.23,21.9-32.22,25.43Z"/><path class="cls-51" d="M649.49,193.57c15.54,28.97,33.21,116.56,7.19,146.07-26.02,29.51-47.94,39.91-47.94,39.91-6.09-6-13.52-9.92-13.52-9.92,16.9-18.73,34.95-44.56,36.48-60.52,1.52-15.95-4.73-40.66,17.79-115.54Z"/><path class="cls-19" d="M542.13,278.27c.1,1.95,1.55-.83,3.5-.93,1.95-.1,3.67,2.53,3.57,.58-.1-1.95-1.76-3.46-3.71-3.36-1.95,.1-3.46,1.76-3.36,3.71Z"/><path class="cls-26" d="M613.93,213.47c-6.99,7.23-22.5,9.75-34.9,8.41,37.37,1.84,32.61-22.57,30.28-36.91,5.52,23.92,4.62,28.5,4.62,28.5Z"/><path class="cls-5" d="M572.48,124.46c4.34,2.93,17.81,2.08,21.27,0-3.24,9.63-16.68,9.36-16.47,9.26-.36-3.69-4.8-9.26-4.8-9.26Z"/><path class="cls-51" d="M530.46,61.45c18.76-8.76,96.72,3.67,113.37,26.03,9.35-20.69,1.76-50.39,1.76-50.39-16.83-23.16-65.91-40.02-92.34-24.67-26.43,15.35-22.79,49.04-22.79,49.04Z"/><path class="cls-45" d="M640.71,78.04c13.6-5.99,24.1-1.1,24.97,3.61,.87,4.7-31.2-.86-24.97-3.61Z"/><path class="cls-45" d="M643.57,78.46c10.35,7.3,17.7,10.6,16.75,12.93-.94,2.33-10.21-.59-17.47-12.29,1.12-.35,.71-.64,.71-.64Z"/></g><g><path class="cls-2" d="M379.66,190.76c16.05,30.25-31.26,59.45-14.61,93.3,6.4,13.02,19.28,22.61,22,37.43,3.2,17.46-7.53,34.4-20.31,45.26-1.74,1.48,.78,3.97,2.5,2.5,11.64-9.88,20.97-23.95,21.82-39.57,1.55-28.32-30.98-39.65-25.57-67.82,4.27-22.22,30.6-47.69,17.22-72.91-1.07-2.01-4.13-.23-3.06,1.79h0Z"/><rect class="cls-4" x="304.18" y="442.13" width="129.27" height="216.77"/><rect class="cls-51" x="303.46" y="425.16" width="132.38" height="95.85"/><path class="cls-51" d="M441.8,658.7h-11.93V74.14c0-3.31,2.67-5.98,5.97-5.98h0c3.29,0,5.97,2.68,5.97,5.98V658.7Z"/><rect class="cls-2" x="360.16" y="125.5" width="44.27" height="68.3"/><polygon class="cls-4" points="134.42 406.33 129.86 443.99 560.7 443.99 555.07 406.33 134.42 406.33"/><rect class="cls-54" x="382.29" y="88.77" width="103.6" height="3.2"/><path class="cls-54" d="M382.45,115.74c-3.69,0-6.69-3-6.69-6.69v-.5c0-.76,.61-1.37,1.37-1.37s1.37,.61,1.37,1.37v.5c0,2.18,1.77,3.96,3.95,3.96s3.96-1.77,3.96-3.96v-18.68c0-.76,.61-1.37,1.37-1.37s1.37,.61,1.37,1.37v18.68c0,3.69-3,6.69-6.69,6.69Z"/><path class="cls-54" d="M476.31,117.33c-3.69,0-6.69-3-6.69-6.69v-.5c0-.76,.61-1.37,1.37-1.37s1.37,.61,1.37,1.37v.5c0,2.18,1.77,3.96,3.96,3.96s3.96-1.77,3.96-3.96v-18.68c0-.76,.61-1.37,1.37-1.37s1.37,.61,1.37,1.37v18.68c0,3.69-3,6.69-6.69,6.69Z"/><g><rect class="cls-28" x="352.13" y="142.31" width="60.33" height="34.67" transform="translate(541.94 -222.64) rotate(90)"/><path class="cls-2" d="M371.71,118.66h21.16c4.63,0,8.38,3.76,8.38,8.38v6.85h-37.93v-6.85c0-4.63,3.76-8.38,8.38-8.38Z"/><path class="cls-2" d="M387.94,121.98h-12.19v-4.68c0-3.37,2.73-6.1,6.1-6.1h0c3.37,0,6.1,2.73,6.1,6.1v4.68Z"/><path class="cls-54" d="M380.02,111.95c-.98-.85-1.53-2.1-1.53-3.39v-.02c0-.76-.61-1.37-1.37-1.37s-1.37,.61-1.37,1.37v.14c0,1.27,.43,3.17,1.2,4.18,2.02,2.66,3.68,2.78,5.17,2.87,.77,.05,1.4-.6,1.4-1.37h0c0-.73-.57-1.31-1.29-1.36-.66-.05-1.38-.33-2.2-1.04Z"/></g></g><g><g><ellipse class="cls-55" cx="403.31" cy="266.32" rx="18.46" ry="59.97" transform="translate(-40.85 456.87) rotate(-56.66)"/><path class="cls-49" d="M387.58,359.75c5.25,6.57-15.76,39.74-15.76,39.74,0,0,25.61-.66,28.24,2.3,2.63,2.96,3.61,14.78,3.61,14.78l-52.87-2.3s-8.21-17.73-8.87-21.35c-.66-3.61,1.64-22.99,1.64-22.99l44-10.18Z"/><path class="cls-49" d="M417.13,231.35s7.66-2.85,12.48-6.57c4.82-3.72,9.41-1.53,10.95-.44,1.53,1.09,3.07,10.95,6.57,14.23,3.5,3.28,.44,7.44-2.19,6.79-2.63-.66-8.76-4.16-8.76-4.16l-6.13,5.47-12.92-15.33Z"/><path class="cls-49" d="M416.15,323.63s13.79,72.25,17.73,75.53c3.94,3.28,11.82-1.64,14.12,2.96,2.3,4.6,5.58,9.85,2.3,11.49-3.28,1.64-17.08,3.61-21.35,1.64-4.27-1.97-33.5-78.81-33.5-78.81l20.69-12.81Z"/><path class="cls-23" d="M392.5,230.37s2.96-1.97,7.22-2.63,19.05,1.97,21.35,2.96c2.3,.99,12.81,17.08,11.82,20.03-.99,2.96-6.57,15.43-3.28,17.08,3.28,1.64,5.91,1.64,5.91,3.94,0,2.3-3.94,15.11-5.91,17.08-1.97,1.97-4.6,.33-4.6,.33,0,0-3.61,1.97-7.55-.66,0,0-3.61,2.63-5.25,2.63l.99,6.9s8.87,12.48,8.87,19.05c0,6.57-9.52,23.32-22.66,42.03,0,0,4.6,34.15,9.52,44.66,0,0,6.9-1.97,10.18-.99s6.24,13.46,6.24,13.46c0,0-18.39,1.97-22,.33-3.61-1.64-24.3-44.99-24.3-44.99,0,0-10.51,12.15-16.09,15.11,0,0-11.67,7.85-8.87,13.46,.33,.66,8.21,3.28,14.78,2.63,6.57-.66,10.84-2.96,13.14,.99,2.3,3.94,6.57,11.17,.66,12.15-5.91,.99-25.61-.66-39.08-1.64s-22,3.28-23.32-.99c-1.31-4.27,4.93-15.43,4.93-15.43,0,0-11.82-18.72-12.15-36.78-.33-18.06,5.25-26.6,11.82-30.54,6.57-3.94,19.38-6.24,23.64-10.84q4.27-4.6,8.87-10.84c4.6-6.24,5.25-13.79,9.2-17.73s11.82-9.52,11.82-9.52c0,0,1.64-21.35,1.97-22.33s12.15-28.9,12.15-28.9Z"/><path class="cls-48" d="M429.45,271.75c-3.28-.44-9.47-8.87-8.59-14.78,.88-5.91,4.16-5.47,3.28-10.07-.57-3.02-2.85-11.02-5.33-16.85-3.89-.92-11.3-2.15-16-2.37,3.31,4.62,9.49,13.53,10.6,17.03,1.53,4.82,4.16,11.38,1.97,18.61s-11.17,11.38-15.76,10.29c0,0,.22,6.13,.66,7.66,.44,1.53,2.85,1.97,2.85,1.97,0,0-2.63,8.98-3.5,11.6-.88,2.63-5.91,15.11-5.47,18.17,.44,3.06,5.47,13.79,5.47,19.7,0,4.57-.39,18.11,.34,25.57,12.84-18.39,22.1-34.75,22.1-41.22,0-6.57-8.87-19.05-8.87-19.05l-.99-6.9c1.64,0,4.38-1.86,4.38-1.86,3.94,2.63,8.43-.11,8.43-.11,0,0,2.63,1.64,4.6-.33,1.97-1.97,5.91-14.78,5.91-17.08-1.97-1.42-2.79,.44-6.08,0Z"/><path class="cls-49" d="M392.61,228.07c7.32,3.57,2.41,9.2-.88,17.08,0,0,0,2.41,.88,7.44,.88,5.04-.22,16.64-7.44,15.98-7.22-.66-12.48-2.19-15.98-7.88-3.5-5.69-2.41-6.57,3.72-15.76,6.13-9.2,11.17-21.02,19.7-16.86Z"/><path class="cls-33" d="M422.79,281.71c3.17-.12,7.93-6.47,7.81-7.81-.12-1.34-.98-1.71-1.83-1.71s-9.76,.73-12.57,.37c-2.81-.37-1.34,3.29,.49,3.66s6.1,5.49,6.1,5.49Z"/><path class="cls-23" d="M291.43,329.14c.67-1.79,1.35-3.58,2.02-5.37-5.23,1.65-10.58,3.37-14.88,6.76s-7.4,8.88-6.41,14.27c.76,4.14,3.79,8.11,2.58,12.14-3.21-2.01-5.57-5.33-6.41-9.02-1.16,.29-1.64,1.65-1.89,2.82-2.24,10.63-.58,22.17,5.24,31.34,5.82,9.17,15.9,15.7,26.72,16.53,10.83,.83,22.09-4.38,27.88-13.57,1.27-1.73-1.18-4.09-3.31-3.84-2.13,.25-3.82,1.83-5.77,2.74-2.66,1.23-5.75,1.16-8.61,.53-12.07-2.65-20.6-15.13-20.44-27.48,.16-12.36,7.95-23.87,18.48-30.34,.51-2.4-3.22-3.1-5.56-2.36-3.45,1.09-6.72,2.74-9.65,4.87Z"/><path class="cls-33" d="M412.11,291.45c-4.27,0-8.46-6.67-9.17-7.87-.4,0-1.24-.12-2.04-.89-1.55-1.49-2.09-4.56-1.61-9.12,.02-.18,.16-.33,.36-.29,.18,.02,.31,.18,.29,.36-.57,5.39,.44,7.62,1.39,8.56,.83,.82,1.71,.73,1.74,.71,.13-.02,.26,.05,.33,.16,.04,.08,4.49,7.72,8.71,7.72h.08c3.92-.1,8.18-5.53,10.47-8.45,.24-.31,.46-.59,.66-.84,.08-.1,.22-.16,.34-.11,.13,.03,.22,.14,.24,.27,.47,3.39,1.3,7.23,1.82,7.52,.87,.44,2.25,.22,2.26,.22,.17-.03,.35,.09,.38,.27,.03,.18-.09,.35-.27,.38-.06,.01-1.6,.26-2.66-.28-.94-.47-1.73-5.01-2.07-7.26-.06,.08-.12,.15-.18,.24-2.52,3.21-6.74,8.6-10.98,8.7h-.1Z"/><path class="cls-49" d="M412.19,250.83c.8-.85,.61-2.32-.17-3.19s-1.98-1.25-3.14-1.4c-1.49-.2-3.04-.08-4.41,.53-.83,.37-1.59,.94-2.08,1.7-.49,.77-.68,1.75-.39,2.61,.08,.23,.19,.45,.38,.59,.2,.15,.46,.19,.71,.21,1.34,.06,2.6-.64,3.94-.69,.89-.03,1.77,.23,2.66,.32,.89,.09,1.88-.04,2.49-.69Z"/><path class="cls-49" d="M432.2,250.19c.28,.45,.45,.97,.46,1.5,0,.34-.06,.7-.26,.98-.44,.6-1.37,.6-2.06,.31-.69-.28-1.3-.77-2.01-.98-1.08-.31-2.31,.04-3.32-.44-.6-.28-1.06-.87-1.13-1.54-.07-.66,.29-1.36,.89-1.64,.35-.16,.75-.18,1.13-.2,1.16-.05,2.34-.09,3.47,.17,1.13,.26,2.23,.86,2.84,1.85Z"/><path class="cls-33" d="M432.4,244.65c-.1,0-.2-.05-.26-.14-.11-.15-.08-.35,.07-.46,.06-.04,5.98-4.43,7.09-10.47,.03-.18,.21-.3,.38-.26,.18,.03,.3,.21,.26,.38-1.16,6.3-7.1,10.7-7.36,10.88-.06,.04-.13,.06-.19,.06Z"/><path class="cls-33" d="M442.75,240.55c-.06,0-.12-.02-.17-.05-2.52-1.51-3.69-3.98-3.74-4.08-.08-.16,0-.36,.16-.44,.16-.08,.36,0,.44,.16,.01,.02,1.14,2.39,3.48,3.8,.15,.09,.21,.3,.11,.45-.06,.1-.17,.16-.28,.16Z"/><path class="cls-33" d="M379.04,371.91c-.13,0-.25-.07-.3-.2-.09-.2-8.91-20.49-11.18-29.61-.04-.18,.06-.35,.24-.4,.17-.05,.35,.06,.4,.24,2.27,9.06,11.06,29.3,11.15,29.5,.07,.17,0,.36-.17,.43-.04,.02-.09,.03-.13,.03Z"/><path class="cls-33" d="M353.42,397.85c-.06,0-.13-.02-.18-.05-.15-.1-.19-.31-.09-.46,.12-.17,11.47-17.43,12.76-24.83,1.1-6.3,.29-22.45-3.7-27.97-.79-1.09-1.66-1.72-2.59-1.86-6.41-.97-12.27,.95-12.33,.97-.17,.07-.36-.04-.41-.21-.06-.17,.03-.36,.21-.41,.06-.02,6.07-1.98,12.63-1,1.11,.17,2.13,.88,3.03,2.12,4.15,5.75,4.95,21.91,3.81,28.47-1.31,7.53-12.39,24.37-12.86,25.08-.06,.09-.17,.15-.27,.15Z"/><path class="cls-33" d="M338.31,411.65c-4.2,0-7.18-1.06-8.86-3.15-2.14-2.67-1.34-5.99-1.3-6.13,.04-.17,.21-.29,.4-.24,.17,.04,.28,.22,.24,.4,0,.03-.75,3.16,1.19,5.56,1.55,1.93,4.35,2.9,8.34,2.9,.22,0,.43,0,.66,0h0c.18,0,.32,.14,.33,.32s-.14,.33-.32,.34c-.23,0-.45,0-.67,0Z"/><path class="cls-48" d="M382.73,415.91c5.91-.99,1.64-8.21-.66-12.15-2.3-3.94-6.57-1.64-13.14-.99-1.19,.12-2.42,.13-3.65,.06-3.82,3.39-8.8,9.08-16.22,11.83,12.85,.96,28.51,2.1,33.66,1.24Z"/><path class="cls-48" d="M425.67,416.24s-2.96-12.48-6.24-13.46c-.7-.21-1.56-.28-2.49-.27-5.05,2.32-11.65,9.23-14.4,12.96,.46,.58,.85,.97,1.12,1.1,3.61,1.64,22-.33,22-.33Z"/><path class="cls-48" d="M438.04,400.37c-.6,.39-1.02,.87-1.21,1.42-.73,2.19-5.59,9.4-8.07,13.01,.2,.23,.37,.39,.52,.46,4.27,1.97,18.06,0,21.35-1.64,3.28-1.64,0-6.9-2.3-11.49-1.68-3.37-6.36-1.63-10.29-1.75Z"/><path class="cls-33" d="M373.45,416.35c-.07,0-.15-.03-.21-.08-.14-.12-.15-.32-.04-.46,2.73-3.24-1.59-8.06-1.63-8.1-.12-.13-.11-.34,.02-.46,.13-.12,.34-.11,.46,.02,.19,.21,4.75,5.29,1.65,8.97-.06,.08-.16,.12-.25,.12Z"/><path class="cls-33" d="M379.91,416.57c-.09,0-.19-.04-.26-.12-.11-.14-.09-.35,.05-.46,.91-.73,1.42-1.65,1.52-2.75,.27-3.13-2.84-6.7-2.87-6.74-.12-.14-.11-.34,.03-.46,.14-.12,.34-.11,.46,.03,.14,.16,3.33,3.82,3.03,7.23-.11,1.28-.7,2.36-1.76,3.2-.06,.05-.13,.07-.21,.07Z"/><path class="cls-33" d="M412.09,417.77s-.1-.01-.15-.04c-.16-.08-.23-.28-.15-.44,2.13-4.26-1.68-6.48-1.84-6.57-.16-.09-.21-.29-.12-.45,.08-.16,.29-.21,.45-.13,.05,.03,4.51,2.62,2.1,7.44-.06,.12-.17,.18-.29,.18Z"/><path class="cls-33" d="M420.63,417.11s-.04,0-.07,0c-.18-.04-.29-.21-.25-.39,.58-2.76,.32-5.01-.79-6.69-1.36-2.07-3.54-2.55-3.56-2.55-.18-.04-.29-.21-.25-.39,.03-.17,.18-.31,.39-.25,.1,.02,2.47,.53,3.97,2.83,1.2,1.83,1.5,4.25,.88,7.19-.03,.16-.17,.26-.32,.26Z"/><path class="cls-33" d="M442.2,415.91s-.03,0-.04,0c-.18-.02-.31-.18-.29-.36,.62-5.3-2.88-7.69-3.03-7.79-.15-.1-.19-.3-.09-.45,.1-.16,.31-.2,.45-.09,.16,.11,3.99,2.69,3.32,8.41-.02,.17-.16,.29-.33,.29Z"/><path class="cls-33" d="M450.3,413.94c-.18,0-.33-.15-.33-.33,0-7.25-5.98-9.85-6.04-9.88-.17-.07-.24-.26-.17-.43,.07-.16,.26-.24,.43-.17,.06,.03,6.44,2.8,6.44,10.48,0,.18-.15,.33-.33,.33Z"/><path class="cls-49" d="M352.29,340.13c4.32,.14,8.01-2.98,11.03-6.08,2.87-2.96,5.63-6.17,7.1-10.02,1.71-4.5,1.53-9.55,3.21-14.06,.75-2.01,1.85-3.87,2.7-5.84,1.5-3.48,2.18-7.45,1.09-11.08-.85-2.85-2.97-5.37-5.66-6.52-1.9,1.52-3.85,3.16-5.28,4.59-3.94,3.94-4.6,11.49-9.2,17.73q-4.6,6.24-8.87,10.84c-4.27,4.6-17.08,6.9-23.64,10.84-.02,.01-.04,.02-.05,.03,1.2,.08,2.43,.02,3.63,.04,4.29,.08,8.55,1.32,12.21,3.57,3.79,2.33,7.28,5.82,11.73,5.96Z"/><path class="cls-49" d="M381.81,326.32c1.94-.44,3.13-2.42,3.68-4.33,.38-1.32,.56-2.73,.24-4.06-.36-1.48-1.31-2.78-1.6-4.28-.32-1.66,.04-3.74-1.35-4.7-.94-.65-2.29-.35-3.15,.39-.86,.75-1.33,1.84-1.72,2.91-.59,1.65-1.04,3.34-1.35,5.06-.37,2.04-.51,4.21,.32,6.1,.83,1.89,2.91,3.37,4.92,2.91Z"/><path class="cls-33" d="M281.67,338.57c-.14,0-.27-.09-.32-.24-1.33-4.65,.58-9.99,.66-10.22,.06-.17,.25-.26,.42-.19,.17,.06,.26,.25,.19,.42-.02,.05-1.92,5.37-.65,9.81,.05,.17-.05,.36-.23,.41-.03,0-.06,.01-.09,.01Z"/><path class="cls-33" d="M277.89,366.82s-.07,0-.11-.02c-6.75-2.3-12.4-9.65-12.64-9.96-.11-.15-.08-.35,.06-.46,.15-.11,.35-.08,.46,.06,.06,.08,5.76,7.5,12.32,9.74,.17,.06,.26,.24,.21,.42-.05,.14-.17,.22-.31,.22Z"/><path class="cls-33" d="M275.92,372.4s-.08,0-.11-.02c-6.25-2.3-10.28-6.95-10.32-6.99-.12-.14-.1-.34,.04-.46,.13-.12,.34-.11,.46,.04,.04,.04,3.96,4.56,10.04,6.8,.17,.06,.26,.25,.19,.42-.05,.13-.17,.22-.31,.22Z"/><circle class="cls-33" cx="412.25" cy="277.86" r=".29"/><circle class="cls-33" cx="409.82" cy="282.5" r=".33"/><circle class="cls-33" cx="407.2" cy="278.72" r=".41"/><circle class="cls-33" cx="431.5" cy="278.64" r=".25"/><path class="cls-33" d="M428.73,281.93c0-.24-.19-.43-.43-.43s-.43,.19-.43,.43c0,.24,.19,.43,.43,.43s.43-.19,.43-.43Z"/><circle class="cls-33" cx="430.92" cy="283.73" r=".16"/><path class="cls-34" d="M354.05,232.48c-7.75,11.62,16.01,33.06,38.22,47.26,22.21,14.2,45.91,27.29,61.72,18.85,0,0-13.17,8.01-40.8,4.13,0,0-21.69,3.1-38.22-19.11,0,0-24.02-39.25-23.5-45.45,.52-6.2,2.58-5.68,2.58-5.68Z"/></g><g><path class="cls-3" d="M412.13,257.55s-.72-3.15-3.8-3c-2.05,.1-3.47,2.35-3.47,2.35,0,0,1.05,2.61,3.03,2.65,3.33,.06,4.24-2.01,4.24-2.01Z"/><path class="cls-8" d="M411.38,257.52s-.42-2.74-3.04-2.61c-1.75,.09-2.75,1.94-2.75,1.94,0,0,.92,2.44,2.61,2.35,2.35-.12,3.19-1.68,3.19-1.68Z"/><path class="cls-30" d="M406.49,257.33c.27,1.03,1.32,1.65,2.36,1.38,1.03-.27,1.65-1.32,1.38-2.36-.27-1.03-1.32-1.65-2.36-1.38-1.03,.27-1.65,1.32-1.38,2.36Z"/><path class="cls-46" d="M407.36,257.1c.14,.55,.7,.88,1.25,.74,.55-.14,.88-.7,.74-1.25-.14-.55-.7-.88-1.25-.74-.55,.14-.88,.7-.74,1.25Z"/><path class="cls-39" d="M406.74,256.2c.1,.38,.49,.61,.87,.51,.38-.1,.61-.49,.51-.87-.1-.38-.49-.61-.87-.51-.38,.1-.61,.49-.51,.87Z"/></g><g><path class="cls-3" d="M422.5,257.54s.45-3.2,3.53-3.31c2.06-.08,3.66,2.05,3.66,2.05,0,0-.82,2.69-2.79,2.9-3.31,.35-4.4-1.64-4.4-1.64Z"/><path class="cls-8" d="M423.24,257.45s.19-2.76,2.81-2.86c1.75-.06,2.91,1.7,2.91,1.7,0,0-.71,2.51-2.4,2.56-2.35,.08-3.32-1.4-3.32-1.4Z"/><path class="cls-30" d="M424.08,256.93c.22,1.04,1.25,1.71,2.3,1.48,1.04-.22,1.71-1.25,1.48-2.3-.22-1.04-1.25-1.71-2.3-1.48-1.04,.22-1.71,1.25-1.48,2.3Z"/><path class="cls-46" d="M424.96,256.74c.12,.56,.67,.91,1.22,.79,.56-.12,.91-.67,.79-1.22-.12-.56-.67-.91-1.22-.79-.56,.12-.91,.67-.79,1.22Z"/><path class="cls-39" d="M424.38,255.81c.08,.39,.46,.63,.85,.55,.39-.08,.63-.46,.55-.85-.08-.39-.46-.63-.85-.55-.39,.08-.63,.46-.55,.85Z"/></g></g><g><g><path class="cls-1" d="M230.05,661.01c1.11,.55,1.61,1.92,1.5,3.16-.11,1.23-3.24,1.89-9.44,2-2.56,.04-12.93-9.82-14.17-11.66-1.73-2.57-.59-5.64-.2-8.7,.39-3.07-.06-6.64-1.4-9.43,7.35-.17,14.72,.5,21.92,1.99-2.62,4.79-5.24,9.58-7.85,14.37-.43,.78-.87,1.63-.76,2.51,.1,.87,.71,1.58,1.29,2.24,1.39,1.56,2.99,3.24,5.07,3.4,1.37,.1,2.83-.47,4.06,.14Z"/><path class="cls-29" d="M269.41,601.12s-3.03,4.41-7.18,4.03c-4.16-.38-22.15-4.79-31.64-4.03-14.24,1.14-22.01,4.73-25.46,6.93-7.31,4.66-17.9,21.43-20.92,26.85-3.03,5.42-17.02,24.71-15,28.86,2.02,4.16,5.29,3.53,6.68,3.28,1.39-.25,3.9-2.73,2.65-4.79-2.52-4.16,8.82-11.6,11.47-13.36,0,0,12.6-7.56,14.75-9.96,2.14-2.39,13.68,.11,21.67,.8,12.41,1.08,20.05-2.57,20.05-1.05s-.88,16.89,.38,20.04c1.26,3.15,1.51,6.68,3.78,7.18,2.27,.5,10.84,1.64,9.2-2.14-1.64-3.78-4.29-1.13-4.92-2.77-.63-1.64,.38-12.23,1.89-14.62,1.51-2.39,4.03-5.67,6.3-5.8,2.27-.13,7.06-.5,7.69,1.01,.63,1.51,4.03,6.93,10.46,11.85,6.43,4.92,8.82,8.07,9.83,9.71,1.01,1.64,3.4,3.15,6.43,3.03,3.03-.13,5.92-1.89,4.16-3.91-1.76-2.02-4.29-1.89-5.17-3.78-.88-1.89-11.72-15.5-11.97-18.28-.25-2.77,2.2-15.31,2.3-18.58,.21-6.32,6.96-6.74,4.63-20.66-2.56-3.21-22.06,.17-22.06,.17Z"/><g><path class="cls-42" d="M159.52,606.1c.75,6.46,4.93,12.35,10.4,15.85,5.48,3.5,12.65,4.37,18.66,1.91,8.36-3.41,13.4-12.3,21.58-16.11,2.35-1.1,5.01-1.82,6.72-3.76-5.81-1.83-12.04,.09-18.09,.8-6.62,.78-13.33,.08-19.93-.91-1.45-.22-2.93-.46-4.25-1.11-1.32-.65-2.48-1.78-2.81-3.21-.51-2.22-1.28-7.3,.29-12.25,1.25-3.93-14.15,5.34-12.59,18.8Z"/><path class="cls-38" d="M198.8,604.78c-6.01,.71-12.08,.2-18.08-.65,1.02,1.39,1.84,2.95,2.79,4.39,1.47,2.25,3.53,4.43,6.2,4.75,3.35,.39,6.19-2.19,8.85-4.27,2.72-2.13,5.71-3.87,8.76-5.51-2.84,.36-5.69,.95-8.51,1.28Z"/><path d="M170.71,618.56c-.61-1.13-.97-2.37-1.67-3.44-1.4-2.14-4.16-3.79-3.97-6.34,.21-2.69,3.72-4.27,3.81-6.97,.04-1.35-.81-2.72-.35-3.99,.29-.79,1.11-1.35,1.95-1.33,.29,0,.58,.09,.85,.22-.29-2.55-.31-6.01,.77-9.41,1.25-3.93-14.15,5.34-12.59,18.8,.75,6.46,4.93,12.35,10.4,15.85,4.28,2.73,9.59,3.86,14.57,3.06-1.99-.06-3.96-.26-5.88-.77-3.22-.86-6.32-2.73-7.9-5.67Z"/></g><path class="cls-14" d="M222.39,635.33c-6.6-.05-13.38-.5-19.62,1.65-4.99,1.72-9.3,5.04-12.9,8.9-2.15,2.3-4.06,4.8-5.88,7.37,2.43-1.99,4.94-3.64,6.01-4.35,0,0,12.6-7.56,14.75-9.96,2.14-2.39,13.68,.11,21.67,.8,10.45,.91,17.52-1.54,19.49-1.42,.67-2.03,1.91-3.87,3.57-5.22-8.94,1.55-18.02,2.3-27.09,2.23Z"/><path class="cls-13" d="M205.12,608.06c3.45-2.2,11.23-5.8,25.46-6.93,9.49-.76,27.48,3.66,31.64,4.03,1.44,.13,2.74-.32,3.83-.95-1.51,5.31-5.81,9.82-11.12,11.39-7.06,2.09-14.92-.69-21.9,1.64-5.61,1.87-9.84,6.81-15.54,8.42-7,1.97-14.43-1.54-21.66-.76-2.37,.26-4.69,.99-6.78,2.12,4.59-7,11.09-15.78,16.07-18.96Z"/><path class="cls-43" d="M262.53,605.16c4,.14,6.87-4.04,6.87-4.04,0,0,19.5-3.38,22.06-.17,2.34,13.93-4.42,14.34-4.63,20.66-.09,2.81-1.9,12.4-2.26,16.84-2.33,.3-4.85-.44-6.56-2.09-1.85-1.79-2.78-4.35-4.59-6.18-2.52-2.54-6.54-3.47-8.44-6.5-1.64-2.6-1.21-5.94-.79-8.99,.42-3.05,.7-6.44-1.14-8.91-.16-.22-.34-.43-.53-.63Z"/><g><path class="cls-5" d="M252.42,658.37c.76-.26,1.54-.47,2.33-.63-.06,1.55-.02,2.78,.16,3.26,.63,1.64,3.28-1.01,4.92,2.77,1.64,3.78-6.93,2.65-9.2,2.14-1.79-.4-2.32-2.68-3.09-5.17,1.53-.97,3.16-1.79,4.88-2.38Z"/><path class="cls-5" d="M301.68,662.26c1.76,2.02-1.13,3.78-4.16,3.91-3.03,.13-5.42-1.39-6.43-3.03-.3-.49-.73-1.11-1.34-1.87,1.28-2.04,3.28-3.66,5.55-4.66,.62,.88,1.06,1.55,1.21,1.87,.88,1.89,3.4,1.76,5.17,3.78Z"/><path class="cls-5" d="M175.49,661.47c.78,.31,1.66-.02,2.46-.29,.07-.02,.15-.05,.23-.07,.03,.4,.13,.78,.35,1.14,1.25,2.06-1.26,4.54-2.65,4.79-1.39,.25-4.66,.88-6.68-3.28-.45-.93-.1-2.61,.74-4.71,1.2,.14,2.58-.02,3.57,.66,.73,.51,1.15,1.43,1.98,1.76Z"/></g><path class="cls-43" d="M215.05,661.51c1.09-.8,2.42-1.27,3.78-1.29,.93,0,1.84,.19,2.76,.25,.78,.06,1.59,0,2.29-.31,.65,.38,1.34,.65,2.1,.7,1.37,.1,2.83-.47,4.06,.14,1.11,.55,1.61,1.92,1.5,3.16-.11,1.23-3.24,1.89-9.44,2-1.21,.02-4.15-2.16-7.05-4.66Z"/><g><path d="M255.22,661.41c-.14,.11-.28,.22-.42,.33-1.69,1.32-3.45,2.65-5.44,3.39-1.17-1.32-1.54-3.97-2.52-6.41-.78-1.95-.74-8.56-.6-13.69,.55,.01,1.12,.07,1.66-.01,2.13-.34,3.5-2.8,5.65-2.99,1.28-.11,2.46,.62,3.62,1.16,.48,.22,1.01,.4,1.55,.49-.73,.89-1.39,1.84-1.92,2.69-1.51,2.39-2.52,12.98-1.89,14.62,.07,.19,.18,.32,.3,.42Z"/><path d="M283.55,644.56c.76-.51,1.63-.92,2.52-1.11,3.08,5.04,9.76,13.57,10.44,15.03,.18,.39,.45,.68,.75,.94-.97,.51-1.86,1.3-2.62,2.09-.87,.9-1.78,1.87-2.83,2.53-.28-.29-.53-.59-.72-.89-1.01-1.64-3.4-4.79-9.83-9.71-1.85-1.41-3.44-2.86-4.79-4.25,.99-.16,1.97-.59,2.8-1.16,1.52-1.03,2.76-2.44,4.28-3.47Z"/></g><path class="cls-31" d="M291.16,609.23c.2,0,.39,0,.59,0-.94,6.24-4.75,7.67-4.91,12.39-.03,.79-.19,2.13-.42,3.74-.6-.02-1.2-.11-1.79-.21-2.32-.4-4.62-.89-6.9-1.48-1.49-.38-3.07-.87-4.05-2.05-1.17-1.42-1.17-3.43-1.64-5.2-.65-2.46-2.34-4.63-4.57-5.86,.79-.68,1.93-.74,2.97-.77,6.9-.18,13.81-.37,20.71-.55Z"/></g><path class="cls-29" d="M277.93,593.13c3.36-.52,7.76-2.2,10.93-.58,3.17,1.62,5.43,5.88,5.63,7.83,.19,1.94-2.78,15.52-7.05,16.81-4.27,1.29-10.93,1.36-18.17-3.23-3.48-2.21-6.55-8.7-2.52-15.39,2.65-4.4,7.83-4.91,11.19-5.43Z"/><path class="cls-52" d="M265.18,607.93c2.49,3.12,5.01,.63,9.01,.48,4.09-.16,0-8.76,3.47-10.94,2.95-1.86,15.46,6.57,16.82,3.44-.2,3.14-3.06,15.08-7.05,16.29-4.27,1.29-10.93,1.36-18.17-3.23-1.74-1.1-3.38-3.29-4.08-6.03Z"/><g><path d="M264.04,588.7c-1.43,1.47-1.74,5.47-1.52,8.28,.18,2.38,1.13,4.62,2.06,6.81,.11,.27,.24,.55,.5,.69,.23,.12,.5,.09,.75,.06,.77-.1,1.56-.2,2.28-.49,1.35-.54,2.35-1.7,3.17-2.89,1.33-1.95,2.32-4.12,2.91-6.4-3.75-1.26-8.73-7.52-10.15-6.05Z"/><path d="M288.59,582.05c2.04,.87,3.52,10.87,3.15,15.37-.74,1.26-3.69,0-5.15-1.26-1.46-1.27-2.78-2.72-4.45-3.7,1.35-2.92,5.44-10.84,6.44-10.41Z"/><path class="cls-36" d="M270.56,600.63c.81-.86,1.63-1.75,2.09-2.86,.17-.41,.29-.9,.09-1.3-.15-.3-.43-.49-.71-.68-2.37-1.58-4.53-3.49-6.42-5.67-.24-.28-.51-.58-.87-.6-.38-.02-.71,.28-.94,.6-.67,.93-.92,2.1-1.01,3.25-.24,3.07,.57,6.23,2.27,8.77,.29,.43,.62,.86,1.09,1.05,.66,.26,1.41-.02,2.02-.41,.9-.58,1.65-1.37,2.38-2.16Z"/><path class="cls-36" d="M285.24,593.99c1.01-3.76,2.71-10.56,3.21-11.13,.5-.57,3.29,6.06,2.28,14.17-1.17-.09-2.4-.2-3.39-.84-.85-.55-1.43-1.43-2.1-2.19Z"/></g><path class="cls-50" d="M288.28,595.14c-.99-1.46-2.86-1.99-4.56-2.44-.55-.15-1.11-.3-1.67-.4-1.44,.29-2.86,.65-4.13,.84-.46,.07-.96,.14-1.48,.22-.25,.13-.5,.26-.75,.39-.82,.44-1.67,.9-2.21,1.65-.64,.89-.76,2.04-1.13,3.06-1.06,2.91-4.16,4.82-4.89,7.83-.26,1.08-.18,2.21,.01,3.3,.14,.82,.38,1.67,.97,2.25,1.03,1.02,2.8,.83,4.04,.06,1.23-.77,1.86-2.3,3.12-3.02,2.35-1.34,4.73-.34,4.56-2.97-.12-1.83-.64-3.64-.33-5.45,.07-.42,.19-.87,.54-1.11,.47-.32,1.1-.1,1.59,.19,1.53,.91,2.12,2.28,2.46,4.03,.2,1.03-.28,2.82,4.16,2.27,1.05-.13,2.17-.61,3.21-.76,.63-.09,1.29,.03,1.93,.09,.48-2.01,.76-3.71,.77-4.53-1.18-3.46-3.95-2.19-6.21-5.53Z"/><g><path class="cls-47" d="M279.09,607.29c.39-.29,.74-.7,.81-1.18,.08-.51-.15-1.01-.38-1.47-.24-.49-.52-1.01-1.01-1.26-.37-.19-.81-.19-1.22-.17-.58,.03-1.16,.11-1.72,.24-.49,.11-1,.26-1.35,.61-.34,.34-.49,.82-.62,1.29-.18,.68-.29,1.46,.12,2.02,.38,.52,1.08,.67,1.73,.72,1.27,.11,2.63-.05,3.65-.81Z"/><path class="cls-41" d="M279.37,606.21c-.25-.59-.67-2.2-2.45-2.24-1.78-.04-3.02,1.56-3.02,1.56,0,0,.49,2.22,2.17,2.22,.96,0,2.49-.12,3.3-1.54Z"/><path d="M277.03,607.12c.48-.32,.58-.97,.61-1.54,.02-.38,.03-.77-.04-1.15-.03-.13-.06-.25-.11-.38-.17-.04-.36-.07-.57-.07-.68-.01-1.29,.22-1.78,.5-.06,.35-.11,.7-.1,1.06,.02,.51,.19,1.04,.56,1.39,.38,.35,.99,.47,1.42,.19Z"/><path class="cls-5" d="M276.82,605.66c.1-.15,.13-.34,.07-.51-.06-.17-.21-.3-.39-.34-.08-.02-.17,.03-.21,.1-.05,.07-.06,.15-.08,.23-.02,.12-.05,.24-.03,.37,.02,.12,.08,.25,.19,.3,.16,.08,.36,0,.46-.15Z"/></g><g><path class="cls-47" d="M284.62,604.07c.13,.58,.61,1.03,1.15,1.25,.55,.22,1.16,.23,1.75,.15,1.18-.16,1.73-.65,2.57-1.5,.84-.85,.43-3.08-.5-3.49-.93-.4-2.08-.23-2.96,.26-.88,.49-1.61,1.29-1.92,2.25-.11,.35-.17,.72-.09,1.08Z"/><path class="cls-41" d="M289.57,601.98c-.54-.33-1.83-1.39-3.3-.39-1.46,1.01-1.54,3.03-1.54,3.03,0,0,2.02,1.27,3.38,.29,.78-.56,1.62-1.3,1.46-2.93Z"/><path d="M286.28,601.59c-.14,.09-.26,.2-.37,.31-.06,.36-.11,.72-.09,1.08,.02,.51,.17,1.03,.51,1.38,.34,.35,.89,.47,1.28,.19,.44-.31,.52-.96,.55-1.53,.02-.38,.03-.77-.04-1.14-.04-.24-.12-.48-.25-.69-.48-.07-1.02,0-1.59,.4Z"/><path class="cls-5" d="M287.33,603.08c.1-.14,.13-.34,.07-.51-.06-.17-.21-.3-.39-.34-.08-.02-.17,.03-.21,.1-.05,.07-.06,.15-.08,.23-.02,.12-.05,.24-.03,.37,.02,.12,.08,.25,.19,.3,.16,.08,.36,0,.46-.15Z"/></g><g><path class="cls-5" d="M282.17,615.12c.35,.94,1.2,1.68,2.19,1.89,.98,.21,2.06-.12,2.76-.84,.7-.72,1-1.81,.76-2.79-2.03-.55-4.34,.15-5.71,1.74Z"/><path class="cls-21" d="M287.89,613.38c-2.03-.55-4.34,.15-5.71,1.74,.16,.45,.44,.84,.79,1.16,.15-.11,.28-.26,.41-.4,.55-.59,1.34-.93,2.14-1.07,.78-.13,1.57-.09,2.36-.01,.12-.47,.13-.96,.01-1.42Z"/><path class="cls-5" d="M284.63,614.44c1.53-.73,3.44,.06,5-.63,.83-.37,1.45-1.13,1.74-1.99,.29-.86,.25-1.81,.01-2.69-.17-.61-.44-1.2-.86-1.66-.61-.66-1.48-1.01-2.36-1.19-2.62-.53-5.33,.33-7.72,1.53-.99,.5-1.95,1.06-2.75,1.82-.8,.76-1.42,1.75-1.6,2.84-.1,.62-.04,1.3,.32,1.81,.28,.39,.7,.65,1.12,.88,.85,.45,1.76,.79,2.72,.89s1.95-.05,2.78-.54c.55-.33,1.02-.8,1.6-1.08Z"/></g><g><path class="cls-9" d="M286.79,610.32c-.2-1.17-2.63-.83-3.33-.56-.98,.38-2.27,1.81-.59,2.33,.48,.15,1.62,.63,2.11,.5,.45-.13,1.9-1.82,1.82-2.27Z"/><path class="cls-44" d="M282.31,610.64c-.39,.53-.43,1.15,.55,1.46,.48,.15,1.62,.63,2.11,.5,.3-.08,1.02-.84,1.46-1.48-.05,.03-.1,.07-.14,.11-1.25,.96-3.02,.53-3.98-.58Z"/><path class="cls-53" d="M285.8,610.29c.08,0,.17,0,.25-.04,.08-.04,.14-.11,.13-.2-.02-.12-.16-.17-.28-.19-.67-.12-1.35-.16-2.02-.03-.09,.02-.18,.04-.26,.1-.08,.06-.13,.15-.11,.24,.76,.11,1.52,.11,2.29,.11Z"/></g><g><path class="cls-6" d="M303.85,605.51c-.32,0-.7-.02-1.1-.01-.2,0-.41,0-.62,0-.21,0-.42,.02-.64,.03-.85,.03-1.7,.11-2.35,.18-.77,.09-1.44,.19-2.12,.31-.34,.05-.67,.13-1.02,.2-.35,.07-.7,.15-1.08,.24-.38,.08-.8,.21-1.25,.33-.22,.06-.45,.14-.68,.21-.23,.08-.46,.14-.69,.23-.46,.16-.92,.32-1.34,.49-.21,.08-.43,.16-.62,.24-.2,.08-.39,.16-.57,.24-.28,.11-.97,.44-1.25,.56-.15,.07-.09,.06,.13-.02,.11-.04,.26-.09,.45-.17,.18-.07,.4-.17,.66-.26,.14-.06,.3-.12,.46-.18,.08-.03,.17-.07,.26-.1,.09-.03,.18-.06,.27-.1,.38-.13,.79-.28,1.24-.43,.9-.31,1.79-.6,2.87-.86,1.41-.35,3.03-.6,4.36-.75,.25-.03,.53-.06,.82-.09,.29-.03,.59-.05,.9-.08,.62-.04,1.26-.08,1.86-.1,.15,0,.3-.01,.44-.01,.14,0,.28,0,.41,0,.27,0,.51,0,.73,0,.43,.01,.75,.02,.88,.03,.16,0,.13,0-.11-.04-.12-.01-.28-.03-.5-.05-.11,0-.23-.02-.37-.03-.14,0-.29,0-.45-.01Z"/><path class="cls-6" d="M306.31,609.73c-.17-.02-.36-.05-.56-.08-.2-.02-.41-.05-.62-.08-.43-.06-.89-.1-1.35-.14-.46-.05-.92-.08-1.36-.11-.43-.03-.84-.05-1.2-.07-1.67-.08-2.98-.1-4.65-.06-.85,.01-1.9,.08-2.95,.17-1.05,.1-2.1,.22-2.93,.36-.08,.01-.19,.03-.32,.05-.13,.02-.27,.04-.41,.08-.28,.06-.57,.11-.73,.15-.17,.03-.11,.04,.14,.01,.13-.01,.3-.04,.51-.07,.11-.01,.22-.04,.35-.05,.13-.02,.26-.04,.41-.06,.17-.02,.35-.05,.54-.07,.19-.02,.4-.04,.61-.06,.22-.02,.44-.05,.68-.07,.24-.02,.49-.04,.75-.06,.26-.03,.52-.05,.78-.06,.26-.02,.52-.04,.79-.06,.27-.01,.54-.03,.82-.05,.14,0,.28-.01,.43-.02,.14,0,.29,0,.44-.01,1.58-.04,3.36,.01,4.81,.08,1.11,.05,2.61,.14,3.9,.27,.65,.06,1.24,.13,1.71,.19,.47,.07,.81,.12,.95,.14,.17,.03,.14,0-.11-.05-.25-.06-.71-.16-1.41-.26Z"/><path class="cls-6" d="M303.19,612.55c-.55-.14-1.27-.27-2-.41-.36-.08-.73-.13-1.07-.19-.34-.06-.67-.11-.94-.15-.16-.03-.33-.05-.48-.07-.16-.02-.31-.04-.46-.06-.3-.04-.6-.08-.89-.11-.29-.04-.59-.06-.9-.1-.31-.03-.62-.06-.95-.09-.34-.04-.72-.05-1.12-.07-.4-.02-.82-.04-1.24-.05-.42,0-.84-.01-1.24-.02-.2,0-.39,0-.58,0-.19,0-.37,0-.54,0-.26,0-.93,.01-1.19,.02-.28,0,.19,.08,1.14,.09,.13,0,.28,0,.43,0,.08,0,.16,0,.24,0,.08,0,.17,0,.25,.01,.35,.02,.73,.04,1.14,.05,.41,0,.82,.03,1.25,.05,.21,.01,.43,.02,.65,.03,.22,.01,.45,.02,.69,.05,.31,.03,.64,.06,.96,.1,.33,.04,.66,.06,.98,.11,.33,.04,.65,.09,.96,.13,.31,.04,.62,.08,.9,.13,.44,.07,.95,.14,1.49,.22,.53,.09,1.09,.18,1.6,.27,.13,.02,.25,.04,.38,.06,.12,.02,.24,.05,.35,.07,.23,.04,.44,.09,.62,.12,.37,.07,.64,.13,.75,.15,.27,.06-.1-.08-1.2-.34Z"/><path class="cls-6" d="M264.22,615.13c.15-.08,.3-.17,.47-.26,.16-.09,.35-.17,.53-.27,.18-.09,.37-.18,.57-.28,.2-.09,.39-.17,.59-.26,.79-.36,1.61-.65,2.23-.87,.74-.25,1.41-.44,2.08-.61,.33-.09,.68-.16,1.02-.23,.35-.08,.71-.14,1.09-.21,.39-.08,.83-.13,1.29-.2,.23-.04,.47-.05,.71-.08,.24-.02,.48-.06,.73-.07,.49-.03,.98-.07,1.44-.07,.23,0,.46-.01,.68,0,.22,0,.43,.01,.62,.02,.3,0,1.08,.06,1.38,.08,.16,.01,.11-.01-.12-.06-.12-.02-.28-.05-.48-.08-.2-.03-.44-.06-.72-.07-.16,0-.33-.02-.51-.03-.09,0-.18-.01-.28-.02-.1,0-.2,0-.3,0-.2,0-.42,0-.64-.01-.22,0-.46,.01-.7,.02-.98,.04-1.92,.17-3.04,.35-.73,.12-1.51,.27-2.26,.45-.38,.1-.75,.18-1.11,.29-.36,.11-.71,.21-1.03,.33-.25,.09-.52,.18-.8,.29-.28,.12-.57,.24-.86,.36-.58,.27-1.19,.55-1.73,.85-.14,.07-.27,.14-.4,.21-.13,.07-.25,.15-.37,.22-.24,.14-.46,.26-.65,.39-.38,.24-.66,.42-.77,.49-.14,.08-.1,.08,.12-.03,.11-.05,.26-.14,.46-.25,.1-.06,.21-.12,.33-.19,.12-.07,.26-.14,.41-.22Z"/><path class="cls-6" d="M264.42,619.44c.13-.11,.27-.23,.42-.36,.15-.13,.31-.25,.48-.38,.17-.13,.34-.27,.51-.4,.18-.13,.36-.26,.54-.39,.36-.27,.74-.51,1.09-.74,.09-.06,.17-.12,.26-.17,.09-.05,.17-.1,.26-.15,.17-.1,.32-.2,.47-.28,.7-.41,1.33-.75,1.98-1.05,.32-.16,.65-.3,.99-.45,.33-.15,.69-.29,1.06-.43,.38-.16,.81-.29,1.26-.46,.11-.04,.23-.08,.35-.11,.12-.04,.24-.07,.35-.11,.12-.04,.24-.07,.36-.11,.12-.04,.24-.07,.36-.1,.49-.13,.97-.26,1.45-.35,.23-.05,.46-.1,.68-.14,.22-.03,.43-.07,.63-.1,.31-.06,1.1-.15,1.41-.18,.17-.02,.11-.04-.13-.04-.12,0-.29,0-.5,.02-.21,0-.46,.03-.74,.07-.16,.02-.33,.04-.52,.07-.09,.01-.19,.02-.29,.04-.1,.02-.2,.03-.3,.05-.21,.04-.42,.07-.65,.12-.23,.04-.46,.1-.71,.16-.98,.23-1.91,.56-3,.96-.71,.27-1.47,.58-2.19,.92-.36,.17-.72,.34-1.06,.53-.34,.18-.67,.36-.97,.55-.23,.14-.48,.29-.74,.46-.26,.18-.52,.36-.8,.55-.27,.19-.54,.4-.8,.6-.07,.05-.13,.1-.2,.15-.06,.05-.13,.11-.19,.16-.13,.11-.25,.21-.37,.31-.12,.1-.24,.2-.36,.3-.11,.1-.22,.2-.33,.3-.21,.19-.41,.37-.57,.53-.33,.33-.57,.57-.67,.67-.12,.12-.08,.11,.11-.05,.1-.08,.23-.2,.41-.35,.09-.08,.18-.17,.29-.26,.11-.09,.23-.2,.36-.31Z"/><path class="cls-6" d="M269.38,619.46c.37-.32,.91-.68,1.43-1.06,.26-.2,.53-.36,.79-.53,.25-.16,.49-.32,.7-.45,.06-.04,.12-.08,.18-.12,.06-.03,.12-.07,.18-.1,.12-.07,.24-.13,.35-.2,.23-.13,.46-.26,.68-.38,.22-.13,.46-.24,.69-.36,.24-.12,.48-.24,.74-.37,.26-.14,.56-.26,.88-.41,.16-.07,.32-.14,.48-.22,.08-.04,.16-.07,.25-.11,.08-.04,.17-.08,.25-.11,.34-.13,.68-.26,1-.39,.16-.06,.32-.13,.47-.17,.15-.05,.3-.09,.44-.13,.21-.07,.76-.24,.98-.31,.23-.07-.18-.04-.97,.18-.11,.03-.23,.06-.36,.1-.06,.02-.13,.03-.2,.05-.07,.02-.14,.05-.21,.07-.29,.09-.6,.2-.94,.32-.17,.06-.34,.12-.51,.19-.17,.07-.33,.15-.5,.23-.17,.08-.34,.15-.52,.23-.18,.08-.37,.15-.55,.25-.25,.12-.5,.25-.76,.37-.26,.13-.52,.24-.77,.39-.25,.14-.5,.28-.74,.41-.24,.14-.48,.26-.69,.41-.33,.21-.71,.47-1.1,.74-.38,.28-.77,.59-1.13,.87-.09,.07-.18,.14-.26,.21-.08,.07-.16,.14-.24,.21-.15,.14-.29,.26-.42,.37-.25,.22-.43,.38-.51,.44-.19,.15,.12,0,.89-.63Z"/></g></g></g></g></g></svg>