<?xml version="1.0" encoding="UTF-8"?>
<svg id="Layer_2" data-name="Layer 2" xmlns="http://www.w3.org/2000/svg" viewBox="0 0 137.4 172.09">
  <defs>
    <style>
      .cls-1 {
        stroke-width: 3px;
      }

      .cls-1, .cls-2 {
        fill: #3d809e;
        stroke: #3d809e;
        stroke-miterlimit: 10;
      }

      .cls-2 {
        stroke-width: 2px;
      }
    </style>
  </defs>
  <g id="Layer_1-2" data-name="Layer 1">
    <path class="cls-2" d="m43.2,84.75c-.95,0-1.85-.45-2.41-1.23l-9.02-12.38c-.97-1.33-.68-3.2.65-4.17,1.33-.97,3.2-.68,4.17.65l6.37,8.74,11.22-18.69c.85-1.41,2.68-1.87,4.09-1.02,1.41.85,1.87,2.68,1.02,4.09l-13.53,22.55c-.51.86-1.43,1.4-2.43,1.44-.04,0-.09,0-.13,0h0Z"/>
    <path class="cls-2" d="m54.76,102.74l4.06,4.06c.61.6.91,1.39.91,2.19s-.3,1.58-.91,2.19l-4.94,4.94,5.07,5.08c.52.58.78,1.31.78,2.04,0,.79-.3,1.58-.91,2.19l-4.06,4.06c-.6.6-1.39.9-2.19.9s-1.57-.3-2.18-.9l-4.95-4.94-4.94,4.94c-.6.6-1.39.9-2.19.9s-1.58-.3-2.19-.9l-4.05-4.06c-.6-.6-.9-1.39-.9-2.18s.3-1.58.9-2.19l4.94-4.94-4.94-4.94c-.6-.6-.9-1.4-.9-2.19s.3-1.58.9-2.19l4.06-4.06c.6-.6,1.39-.91,2.19-.91s1.58.3,2.19.91l4.94,4.94,5.08-5.07c.58-.52,1.31-.78,2.04-.78.78,0,1.57.3,2.18.91h0Zm1.33,6.23l-3.5-3.5-5.9,5.9c-.68.68-1.78.68-2.46,0l-5.9-5.9-3.5,3.5,5.89,5.9c.68.68.68,1.78,0,2.46l-5.89,5.9,3.5,3.5,5.9-5.9c.68-.68,1.78-.68,2.46,0l5.9,5.9,3.5-3.5-5.9-5.9c-.68-.68-.68-1.78,0-2.46l5.9-5.9Z"/>
    <path class="cls-1" d="m24.49,24.96h23.26v-1.62h-9.62s-.09,0-.09,0h-.18s-.09-.01-.09-.01h-.09s0,0,0,0h-.09s-.09-.01-.09-.01h-.09s0,0,0,0l-.17-.02h-.09s-.09-.03-.09-.03h-.08s0-.01,0-.01h-.08v-.02l-.17-.03h0s-.08-.02-.08-.02l-.08-.02-.08-.02h0l-.08-.02h0s-.08-.02-.08-.02h0l-.08-.02h0l-.08-.02h0s-.08-.03-.08-.03h0s-.08-.03-.08-.03h0l-.08-.03h0l-.08-.03h0l-.08-.03h0l-.08-.03h0l-.08-.03h0s-.08-.03-.08-.03h0s-.08-.03-.08-.03h0l-.15-.07h0s-.07-.04-.07-.04h0l-.07-.04h0s-.07-.04-.07-.04h0s-.07-.04-.07-.04h0s-.07-.04-.07-.04h0s-.14-.08-.14-.08h0s-.07-.04-.07-.04h0s-.07-.04-.07-.04h0s-.07-.04-.07-.04h0s-.07-.05-.07-.05h0s-.07-.05-.07-.05h0s-.14-.09-.14-.09h0s-.14-.1-.14-.1h0s-.06-.05-.06-.05h0s-.06-.05-.06-.05h0s-.06-.05-.06-.05h0s-.06-.05-.06-.05h0s-.06-.05-.06-.05h0s-.06-.06-.06-.06h0s-.06-.05-.06-.05h0s-.06-.06-.06-.06h0s-.06-.06-.06-.06h0s-.06-.06-.06-.06h0s-.06-.06-.06-.06h0s-.06-.06-.06-.06l-.06-.06h0s0,0,0,0h0s-.06-.06-.06-.06h0s-.06-.06-.06-.06h0s-.05-.06-.05-.06h0s-.05-.06-.05-.06h0s-.05-.06-.05-.06h0s-.05-.06-.05-.06h0s-.05-.06-.05-.06h0s-.05-.06-.05-.06h0s-.05-.06-.05-.06h0s-.05-.06-.05-.06h0s-.05-.06-.05-.06h0s-.05-.07-.05-.07h0s-.05-.07-.05-.07h0s-.1-.13-.1-.13h0s-.09-.14-.09-.14h0s-.04-.07-.04-.07h0s-.04-.07-.04-.07h0s-.04-.07-.04-.07h0s-.04-.07-.04-.07h0s-.04-.07-.04-.07h0s-.08-.14-.08-.14h0s0,0,0,0l-.04-.07h0s-.04-.07-.04-.07h0s-.04-.07-.04-.07h0s-.03-.08-.03-.08h0s-.03-.07-.03-.07h0s-.07-.16-.07-.16h0l-.03-.08h0s-.03-.08-.03-.08h0l-.03-.08h0l-.03-.08h0l-.03-.08h0s-.03-.08-.03-.08h0l-.03-.08h0s-.03-.08-.03-.08h0l-.03-.08h0s-.03-.08-.03-.08h0s-.02-.08-.02-.08h0l-.05-.17-.02-.08h0l-.02-.08h0s-.02-.08-.02-.08h0s-.02-.08-.02-.08h0s-.02-.08-.02-.08h0s-.02-.09-.02-.09v-.08s-.01,0-.01,0v-.08s-.03-.09-.03-.09v-.09s-.02-.09-.02-.09v-.09s-.03-.18-.03-.18v-.18s-.01-.09-.01-.09v-.09s0-.09,0-.09v-2.3H10.22c-1.44,0-2.74.59-3.69,1.53-.94.95-1.53,2.25-1.53,3.69v142.5c0,1.44.59,2.75,1.53,3.69.95.94,2.25,1.53,3.69,1.53h116.99c1.44,0,2.75-.59,3.69-1.53.95-.95,1.54-2.25,1.54-3.69V19.4c0-1.44-.59-2.74-1.53-3.69-.95-.94-2.25-1.53-3.69-1.53h-21.05v2.3s0,.09,0,.09v.09s0,.09,0,.09v.09s-.01.09-.01.09v.09s-.01.09-.01.09v.09s-.03.17-.03.17v.09s-.03.08-.03.08h0s-.03.17-.03.17h0s-.02.08-.02.08h0s-.02.08-.02.08h0s-.02.08-.02.08h0s-.02.08-.02.08l-.02.08-.02.08h0l-.02.08-.02.08h0s-.02.08-.02.08h0s-.02.08-.02.08h0l-.03.08h0s-.03.08-.03.08l-.03.08h0s-.03.08-.03.08l-.06.16h0l-.03.08h0s-.03.08-.03.08l-.07.15h0s-.03.08-.03.08h0s-.04.07-.04.07h0s-.04.07-.04.07h0s-.04.07-.04.07h0s-.04.07-.04.07h0s0,0,0,0l-.08.14h0s-.04.07-.04.07h0s-.04.07-.04.07h0s-.04.07-.04.07h0s-.04.07-.04.07h0s-.04.07-.04.07h0s-.09.14-.09.14h0s-.09.14-.09.14h0s-.05.07-.05.07h0s-.05.07-.05.07h0s-.05.06-.05.06h0s-.05.06-.05.06h0s-.05.06-.05.06h0s-.05.06-.05.06h0s-.05.06-.05.06h0s-.05.06-.05.06h0s-.05.06-.05.06h0s-.06.06-.06.06h0s-.05.06-.05.06l-.06.06h0s-.13.13-.13.13h0s-.06.06-.06.06l-.06.06h0s-.06.06-.06.06h0s-.06.06-.06.06h0s-.06.06-.06.06h0s-.06.05-.06.05h0s-.06.05-.06.05h0s-.06.05-.06.05h0s-.06.05-.06.05h0s-.06.05-.06.05h0s-.06.05-.06.05h0s-.07.05-.07.05h0s-.13.1-.13.1h0s-.14.09-.14.09h0s-.07.05-.07.05h0s-.07.04-.07.04h0s-.07.05-.07.05h0s-.07.04-.07.04h0s-.07.04-.07.04h0s-.14.08-.14.08h0s0,0,0,0l-.07.04h0s-.07.04-.07.04h0s-.07.04-.07.04h0s-.07.04-.07.04h0l-.07.03h0s-.15.07-.15.07l-.08.03h0s-.08.03-.08.03h0s-.16.06-.16.06l-.08.03h0l-.08.03-.08.03h0l-.08.03h0s-.08.03-.08.03h0s-.08.03-.08.03h0l-.08.02-.08.02h0s-.08.02-.08.02l-.08.02-.08.02h0l-.08.02h0s-.08.02-.08.02h0l-.08.02h0s-.17.03-.17.03h-.09s-.09.03-.09.03l-.17.02h-.09s-.09.02-.09.02h-.09s-.09.01-.09.01h-.09s-.09,0-.09,0h-.09s-.09,0-.09,0h-.09s-9.52,0-9.52,0v1.62h23.25c2.39,0,4.57.98,6.14,2.56,1.58,1.58,2.56,3.76,2.56,6.15v113.93c0,2.39-.98,4.56-2.56,6.14h0c-1.58,1.58-3.75,2.56-6.14,2.56H24.51c-2.39,0-4.56-.98-6.14-2.56-1.58-1.58-2.56-3.76-2.56-6.15V33.67c0-2.39.98-4.57,2.56-6.14,1.58-1.58,3.76-2.56,6.15-2.56h-.03Zm6.77-14.28v-2.21c0-1.91.78-3.65,2.05-4.91h0c1.26-1.27,3-2.05,4.91-2.05h60.97c1.91,0,3.65.78,4.91,2.05h0c1.26,1.27,2.04,3.01,2.04,4.92v2.21h21.05c2.39,0,4.57.98,6.14,2.56,1.58,1.58,2.56,3.76,2.56,6.15v142.5c0,2.39-.98,4.56-2.56,6.14h0c-1.58,1.59-3.75,2.56-6.14,2.56H10.21c-2.39,0-4.56-.98-6.14-2.56-1.58-1.58-2.56-3.76-2.56-6.15V19.39c0-2.39.98-4.56,2.56-6.14,1.58-1.58,3.76-2.56,6.15-2.56h21.05,0Zm19.97,16.02v2.2c0,.32.13.61.34.82.21.21.5.34.82.34h32.62c.32,0,.61-.13.82-.34.21-.21.34-.5.34-.82v-4.43c0-.31-.14-.59-.34-.79-.2-.2-.47-.33-.78-.34h-32.71c-.3.01-.57.14-.77.34-.2.2-.34.48-.34.79v2.23h0ZM99.18,4.98h-60.97c-.96,0-1.83.39-2.46,1.02-.63.63-1.02,1.5-1.02,2.46v7.91c0,.96.39,1.83,1.02,2.46.63.63,1.5,1.02,2.46,1.02h60.97c.96,0,1.83-.39,2.46-1.02.63-.63,1.02-1.5,1.02-2.46v-7.91c0-.96-.39-1.83-1.02-2.46-.63-.63-1.5-1.02-2.46-1.02Zm-51.44,23.46h-23.26c-1.44,0-2.74.59-3.69,1.53-.94.95-1.53,2.25-1.53,3.69v113.93c0,1.44.59,2.74,1.53,3.69.95.94,2.25,1.53,3.69,1.53h88.43c1.44,0,2.75-.58,3.69-1.53.95-.95,1.54-2.25,1.54-3.69V33.67c0-1.44-.59-2.75-1.53-3.69-.94-.94-2.25-1.53-3.69-1.53h-23.25v.46c0,1.28-.52,2.44-1.37,3.28-.84.84-2,1.37-3.28,1.37h-32.62c-1.28,0-2.44-.52-3.28-1.37-.84-.84-1.36-2-1.36-3.28v-.46h0Z"/>
    <path class="cls-2" d="m71.35,70.53c-.96,0-1.74-.78-1.74-1.74s.78-1.74,1.74-1.74h35.7c.96,0,1.74.78,1.74,1.74s-.78,1.74-1.74,1.74h-35.7Z"/>
    <path class="cls-2" d="m71.35,80.05c-.96,0-1.74-.78-1.74-1.74s.78-1.74,1.74-1.74h22.78c.96,0,1.74.78,1.74,1.74s-.78,1.74-1.74,1.74h-22.78Z"/>
    <path class="cls-2" d="m71.35,116.11c-.96,0-1.74-.78-1.74-1.74s.78-1.74,1.74-1.74h35.7c.96,0,1.74.78,1.74,1.74s-.78,1.74-1.74,1.74h-35.7Z"/>
    <path class="cls-2" d="m71.35,125.63c-.96,0-1.74-.78-1.74-1.74s.78-1.74,1.74-1.74h22.78c.96,0,1.74.78,1.74,1.74s-.78,1.74-1.74,1.74h-22.78Z"/>
  </g>
</svg>